<svg width="40" height="40" viewBox="0 0 40 40" fill="none" xmlns="http://www.w3.org/2000/svg">
<path d="M13.3361 40.0001C17.0161 40.0001 20.0028 37.0134 20.0028 33.3334V26.6667H13.3361C9.6561 26.6667 6.66943 29.6534 6.66943 33.3334C6.66943 37.0134 9.6561 40.0001 13.3361 40.0001Z" fill="#0ACF83"/>
<path d="M6.66943 20.0002C6.66943 16.3202 9.6561 13.3335 13.3361 13.3335H20.0028V26.6668H13.3361C9.6561 26.6668 6.66943 23.6801 6.66943 20.0002Z" fill="#A259FF"/>
<path d="M6.66943 6.66666C6.66943 2.98667 9.6561 0 13.3361 0H20.0028V13.3333H13.3361C9.6561 13.3333 6.66943 10.3467 6.66943 6.66666Z" fill="#F24E1E"/>
<path d="M20.002 0H26.6686C30.3486 0 33.3353 2.98667 33.3353 6.66666C33.3353 10.3467 30.3486 13.3333 26.6686 13.3333H20.002V0Z" fill="#FF7262"/>
<path d="M33.3353 20.0002C33.3353 23.6801 30.3486 26.6668 26.6686 26.6668C22.9886 26.6668 20.002 23.6801 20.002 20.0002C20.002 16.3202 22.9886 13.3335 26.6686 13.3335C30.3486 13.3335 33.3353 16.3202 33.3353 20.0002Z" fill="#1ABCFE"/>
</svg>
