<svg width="40" height="40" viewBox="0 0 40 40" fill="none" xmlns="http://www.w3.org/2000/svg">
<path d="M8.66529 -0.000488281H31.3347C36.1172 -0.000488281 40 3.88232 40 8.6648V31.3342C40 36.1167 36.1172 39.9995 31.3347 39.9995H8.66529C3.88281 39.9995 0 36.1167 0 31.3342V8.6648C0 3.88232 3.88281 -0.000488281 8.66529 -0.000488281Z" fill="#FFD02F"/>
<path d="M27.7956 4.99512H23.4038L27.0616 11.4231L19.0119 4.99512H14.6201L18.645 12.8554L10.2283 4.99512H5.83643L10.2283 14.9981L5.83643 35.004H10.2283L18.645 13.5657L14.6201 35.004H19.0119L27.0616 12.1452L23.4038 35.004H27.7956L35.8453 9.99068L27.7956 4.99512Z" fill="#050038"/>
</svg>
