<svg width="41" height="40" viewBox="0 0 41 40" fill="none" xmlns="http://www.w3.org/2000/svg">
<path d="M7.09483 0.401123H32.9737C36.8972 0.401123 40.0695 3.57337 40.0695 7.49693V32.374C40.0695 36.2976 36.8972 39.4698 32.9737 39.4698H7.09483C3.17127 39.4698 -0.000976562 36.2976 -0.000976562 32.374V7.49693C-0.000976562 3.57337 3.17127 0.401123 7.09483 0.401123Z" fill="#470137"/>
<path d="M21.0712 10.6694L16.0624 18.9339L21.4051 27.6993C21.4385 27.7661 21.4552 27.8329 21.4385 27.8997C21.4218 27.9665 21.355 27.9164 21.2549 27.9331H17.4315C17.1643 27.9331 16.9807 27.9164 16.8638 27.7494C16.5132 27.0482 16.1459 26.3636 15.7953 25.6624C15.4446 24.9779 15.0606 24.2766 14.6599 23.5587C14.2592 22.8408 13.8585 22.1228 13.4578 21.3882H13.4244C13.0738 22.1062 12.6898 22.8241 12.3058 23.542C11.9218 24.2599 11.5378 24.9779 11.1705 25.6791C10.7865 26.3803 10.4025 27.0983 10.0184 27.7828C9.95166 27.9498 9.81809 27.9665 9.63444 27.9665H5.96131C5.89453 27.9665 5.84444 27.9998 5.84444 27.9164C5.82774 27.8496 5.84444 27.7828 5.87783 27.7327L11.0703 19.2177L6.0114 10.6527C5.96131 10.5859 5.94462 10.5191 5.97801 10.4857C6.0114 10.4356 6.07818 10.4189 6.14497 10.4189H9.93496C10.0184 10.4189 10.1019 10.4356 10.1687 10.4523C10.2355 10.4857 10.2856 10.5358 10.3357 10.6026C10.6529 11.3205 11.0202 12.0385 11.4042 12.7564C11.8049 13.4743 12.1889 14.1755 12.6063 14.8768C13.007 15.578 13.3743 16.2792 13.725 16.9972H13.7584C14.109 16.2625 14.4763 15.5446 14.8436 14.8434C15.2109 14.1422 15.5949 13.4409 15.9789 12.7397C16.3629 12.0385 16.7302 11.3205 17.0976 10.636C17.1143 10.5692 17.1476 10.5024 17.1977 10.469C17.2645 10.4356 17.3313 10.4189 17.4148 10.4356H20.9376C21.0211 10.4189 21.1046 10.469 21.1213 10.5525C21.138 10.5692 21.1046 10.636 21.0712 10.6694Z" fill="#FF61F6"/>
<path d="M28.7845 28.2835C27.549 28.3002 26.3135 28.0498 25.1949 27.5322C24.143 27.048 23.2748 26.2466 22.6738 25.2615C22.056 24.2431 21.7555 22.9742 21.7555 21.4548C21.7388 20.2193 22.056 19.0005 22.6738 17.932C23.3082 16.8467 24.2265 15.9452 25.3285 15.3441C26.4972 14.693 27.8996 14.3757 29.5525 14.3757C29.636 14.3757 29.7529 14.3757 29.9032 14.3924C30.0534 14.4091 30.2204 14.4091 30.4207 14.4258V9.14987C30.4207 9.033 30.4708 8.96622 30.5877 8.96622H33.977C34.0605 8.94952 34.1273 9.01631 34.144 9.08309C34.144 9.09979 34.144 9.11648 34.144 9.11648V25.0111C34.144 25.3116 34.1606 25.6455 34.1773 26.0129C34.2107 26.3635 34.2274 26.6974 34.2441 26.9812C34.2441 27.0981 34.194 27.1983 34.0772 27.2484C33.209 27.6157 32.2907 27.8828 31.3557 28.0498C30.5042 28.2 29.6527 28.2835 28.7845 28.2835ZM30.4207 24.9443V17.5981C30.2705 17.5647 30.1202 17.5313 29.9699 17.5146C29.7863 17.4979 29.6026 17.4812 29.419 17.4812C28.7678 17.4812 28.1167 17.6148 27.5323 17.9153C26.9647 18.1991 26.4805 18.6165 26.1132 19.1508C25.7459 19.6851 25.5622 20.403 25.5622 21.2712C25.5455 21.8555 25.6457 22.4399 25.846 22.9909C26.013 23.4417 26.2634 23.8424 26.5974 24.1763C26.9146 24.4768 27.2986 24.7106 27.7327 24.8441C28.1835 24.9944 28.651 25.0612 29.1185 25.0612C29.3689 25.0612 29.6026 25.0445 29.8197 25.0278C30.0367 25.0445 30.2204 25.0111 30.4207 24.9443Z" fill="#FF61F6"/>
</svg>
