<svg width="40" height="40" viewBox="0 0 40 40" fill="none" xmlns="http://www.w3.org/2000/svg">
<path fill-rule="evenodd" clip-rule="evenodd" d="M20 30.2704C31.0457 30.2704 40 25.7325 40 20.135C40 14.5375 31.0457 9.99951 20 9.99951C8.95451 9.99951 0 14.5375 0 20.135C0 25.7325 8.95451 30.2704 20 30.2704Z" fill="#6E81B6"/>
<path fill-rule="evenodd" clip-rule="evenodd" d="M24.0541 23.4114L25.0461 18.3056C25.2701 17.1532 25.0839 16.2937 24.493 15.7505C23.9206 15.225 22.9489 14.9694 21.5225 14.9694H19.8044L20.2958 12.4397C20.305 12.3926 20.3037 12.3441 20.2919 12.2976C20.2802 12.251 20.2583 12.2077 20.2278 12.1707C20.1973 12.1336 20.159 12.1038 20.1156 12.0833C20.0722 12.0629 20.0248 12.0522 19.9768 12.0522H17.6056C17.4498 12.0522 17.3161 12.1628 17.2863 12.3156L16.2326 17.7361C16.1368 17.1261 15.9008 16.6018 15.523 16.1692C14.8275 15.373 13.7274 14.9694 12.2528 14.9694H7.65683C7.50108 14.9694 7.36734 15.0799 7.3376 15.2325L5.20526 26.2045C5.18664 26.3 5.21155 26.3982 5.27346 26.4732C5.33513 26.5484 5.42703 26.5917 5.52449 26.5917H7.91439C8.07014 26.5917 8.20388 26.4811 8.23363 26.3281L8.74948 23.6743H10.5285C11.462 23.6743 12.2465 23.5732 12.8589 23.3739C13.485 23.1703 14.0613 22.8249 14.5692 22.3495C14.9796 21.9724 15.3187 21.5502 15.5796 21.0948L15.1537 23.2869C15.1351 23.3824 15.16 23.4811 15.2219 23.5556C15.2836 23.6308 15.3758 23.6741 15.473 23.6741H17.8443C18 23.6741 18.1337 23.5635 18.1635 23.4109L19.3338 17.3883H20.9609C21.6543 17.3883 21.8574 17.5264 21.9128 17.5856C21.9629 17.6398 22.0669 17.8306 21.95 18.4321L21.0069 23.2866C20.9978 23.3337 20.9993 23.3822 21.0111 23.4286C21.023 23.4751 21.0449 23.5183 21.0754 23.5553C21.1059 23.5923 21.1442 23.6221 21.1875 23.6426C21.2308 23.663 21.2782 23.6737 21.3261 23.6738H23.7351C23.8105 23.674 23.8835 23.6479 23.9418 23.6C24 23.5521 24.0397 23.4854 24.0541 23.4114V23.4114ZM13.0603 19.1927C12.9114 19.9581 12.6308 20.504 12.226 20.8152C11.8149 21.1323 11.1573 21.2929 10.2714 21.2929H9.21213L9.97805 17.3513H11.3476C12.3537 17.3513 12.759 17.5663 12.9218 17.7465C13.1474 17.9965 13.1953 18.4969 13.0603 19.1927V19.1927ZM34.0425 16.1692C33.3472 15.373 32.247 14.9694 30.7725 14.9694H26.1765C26.0205 14.9694 25.887 15.0799 25.8573 15.2325L23.7252 26.2045C23.7063 26.3 23.7312 26.3982 23.7931 26.4732C23.855 26.5481 23.9472 26.5917 24.0439 26.5917H26.4341C26.5901 26.5917 26.7236 26.4811 26.7533 26.3281L27.2692 23.6743H29.0484C29.9822 23.6743 30.766 23.5732 31.3786 23.3739C32.0049 23.1703 32.5813 22.8249 33.0889 22.3495C33.5126 21.9604 33.8611 21.5229 34.1252 21.0505C34.3893 20.5782 34.5786 20.0515 34.6892 19.4846C34.9608 18.0865 34.7433 16.9711 34.0425 16.1692V16.1692ZM31.7157 19.1927C31.5665 19.9581 31.2859 20.504 30.8816 20.8152C30.4702 21.1323 29.8126 21.2929 28.927 21.2929H27.8675L28.6332 17.3513H30.003C31.009 17.3513 31.4144 17.5663 31.5774 17.7465C31.8025 17.9965 31.8506 18.4969 31.7157 19.1927V19.1927Z" fill="white"/>
<path fill-rule="evenodd" clip-rule="evenodd" d="M11.278 17.0252C12.1858 17.0252 12.7912 17.1928 13.0937 17.528C13.396 17.8632 13.4681 18.4388 13.3099 19.254C13.1445 20.1031 12.8263 20.7092 12.3547 21.0724C11.8831 21.4357 11.1653 21.6171 10.2018 21.6171H8.74779L9.64019 17.0252H11.278ZM5.45459 26.2655H7.8445L8.41162 23.3487H10.4588C11.3621 23.3487 12.1053 23.2536 12.6886 23.0638C13.272 22.8739 13.8023 22.5559 14.2795 22.1092C14.68 21.7414 15.0041 21.3351 15.2522 20.8911C15.5001 20.447 15.6761 19.9573 15.7804 19.4216C16.0334 18.121 15.8425 17.1079 15.2084 16.3824C14.5745 15.6566 13.5658 15.2938 12.1832 15.2938H7.58717L5.45459 26.2655V26.2655ZM17.5357 12.3767H19.907L19.3401 15.2938H21.4528C22.7815 15.2938 23.6989 15.5255 24.2033 15.9891C24.7078 16.4527 24.859 17.2041 24.6573 18.2429L23.6652 23.3487H21.2562L22.1994 18.4939C22.3066 17.9415 22.2674 17.565 22.0809 17.364C21.8945 17.1633 21.4976 17.0627 20.891 17.0627H18.9959L17.7744 23.3487H15.4031L17.5357 12.3767ZM29.9334 17.0252C30.8412 17.0252 31.4463 17.1928 31.7491 17.528C32.0514 17.8632 32.1233 18.4388 31.9651 19.254C31.8002 20.1031 31.4819 20.7092 31.0101 21.0724C30.5387 21.4357 29.8207 21.6171 28.8576 21.6171H27.4037L28.2958 17.0252H29.9334V17.0252ZM24.1095 26.2655H26.4997L27.0665 23.3487H29.1138C30.0173 23.3487 30.7605 23.2536 31.3438 23.0638C31.9271 22.8739 32.4575 22.5559 32.9347 22.1092C33.3351 21.7414 33.6592 21.3351 33.9071 20.8911C34.155 20.447 34.3313 19.9573 34.4358 19.4216C34.6885 18.121 34.4977 17.1079 33.8638 16.3824C33.2295 15.6566 32.221 15.2938 30.8383 15.2938H26.2423L24.1095 26.2655V26.2655Z" fill="black"/>
</svg>
