<svg width="40" height="40" viewBox="0 0 40 40" fill="none" xmlns="http://www.w3.org/2000/svg">
<g clip-path="url(#clip0_112_884)">
<path d="M26.5913 16.0044H33.5586V17.2904H30.7948V24.0558H29.4127V17.2904H26.5913V16.0044Z" fill="white"/>
<path d="M15.1333 16.0044V17.2904H9.54853V19.3591H14.0398V20.6451H9.54853V22.7698H15.1333V24.0558H8.16659V17.2904H8.16602V16.0044H15.1333Z" fill="white"/>
<path d="M18.6127 16.0081H16.8042L23.282 24.0594H25.0958L21.8565 20.0365L25.0906 16.0142L23.282 16.017L20.951 18.912L18.6127 16.0081Z" fill="white"/>
<path d="M20.4689 21.7579L19.5632 20.6318L16.7993 24.0643H18.613L20.4689 21.7579Z" fill="white"/>
<path fill-rule="evenodd" clip-rule="evenodd" d="M8.2144 24.0555L1.72791 16.0007H0.000488281V24.0521H1.38243V17.7217L6.47832 24.0555H8.2144Z" fill="white"/>
<path d="M33.8709 24.0086C33.7694 24.0086 33.6832 23.9735 33.6109 23.9032C33.5387 23.833 33.503 23.7479 33.5039 23.6471C33.503 23.5491 33.5387 23.465 33.6109 23.3947C33.6832 23.3244 33.7694 23.2893 33.8709 23.2893C33.9684 23.2893 34.0538 23.3244 34.126 23.3947C34.1993 23.465 34.2358 23.5491 34.2368 23.6471C34.2358 23.7137 34.2189 23.7747 34.1851 23.8293C34.1504 23.8848 34.1064 23.9282 34.0509 23.9596C33.9965 23.992 33.9365 24.0086 33.8709 24.0086Z" fill="white"/>
<path d="M36.2283 20.6133H36.8407V22.9726C36.8397 23.1894 36.7928 23.3749 36.7012 23.5308C36.6085 23.6868 36.4801 23.8058 36.3154 23.8897C36.1515 23.9728 35.9595 24.0152 35.7414 24.0152C35.5419 24.0152 35.3631 23.9793 35.2039 23.9091C35.0447 23.839 34.9183 23.7338 34.8256 23.5954C34.7319 23.457 34.686 23.2845 34.686 23.0778H35.2994C35.3004 23.1682 35.321 23.2466 35.3603 23.3121C35.3995 23.3777 35.4539 23.4275 35.5232 23.4625C35.5933 23.4976 35.674 23.5151 35.7647 23.5151C35.8631 23.5151 35.9474 23.4948 36.0157 23.4533C36.084 23.4127 36.1365 23.3518 36.173 23.2706C36.2086 23.1904 36.2274 23.0907 36.2283 22.9726V20.6133Z" fill="white"/>
<path d="M39.3606 21.5365C39.3457 21.3935 39.2801 21.2818 39.1659 21.2025C39.0506 21.1222 38.9018 21.0825 38.7192 21.0825C38.5909 21.0825 38.4805 21.1019 38.3887 21.1398C38.2969 21.1785 38.2258 21.2302 38.177 21.2957C38.1284 21.3612 38.104 21.4359 38.1021 21.5199C38.1021 21.59 38.119 21.6509 38.1518 21.7017C38.1845 21.7533 38.2285 21.7967 38.2857 21.8318C38.3418 21.8678 38.4045 21.8973 38.473 21.9213C38.5422 21.9453 38.6116 21.9656 38.6808 21.9822L39.0001 22.0606C39.1284 22.0901 39.253 22.1298 39.3719 22.1805C39.4907 22.2304 39.5985 22.294 39.693 22.3706C39.7876 22.4472 39.8625 22.5395 39.9177 22.6474C39.973 22.7554 40.0011 22.8818 40.0011 23.0276C40.0011 23.2241 39.9505 23.3966 39.8484 23.5461C39.7464 23.6947 39.5994 23.8109 39.4065 23.8949C39.2145 23.9779 38.9823 24.0204 38.7089 24.0204C38.4449 24.0204 38.2145 23.9798 38.0207 23.8986C37.826 23.8183 37.6742 23.7002 37.5647 23.5452C37.4551 23.3902 37.3961 23.201 37.3877 22.9787H37.9945C38.0029 23.0949 38.0404 23.1918 38.104 23.2702C38.1686 23.3477 38.2529 23.4049 38.3559 23.4437C38.4599 23.4815 38.5759 23.5009 38.7042 23.5009C38.8382 23.5009 38.9561 23.4806 39.0582 23.4409C39.1593 23.4013 39.2389 23.3459 39.296 23.2739C39.3541 23.2029 39.3831 23.1189 39.384 23.023C39.3831 22.9353 39.3568 22.8624 39.3063 22.8052C39.2548 22.748 39.1836 22.7 39.0928 22.6613C39.0011 22.6225 38.8943 22.5874 38.7726 22.557L38.385 22.4592C38.105 22.3881 37.883 22.2802 37.721 22.1353C37.5582 21.9905 37.4775 21.7986 37.4775 21.5577C37.4775 21.3603 37.5319 21.1868 37.6415 21.0383C37.75 20.8897 37.899 20.7744 38.0872 20.6922C38.2763 20.6092 38.4898 20.5686 38.7276 20.5686C38.9692 20.5686 39.1808 20.6092 39.3634 20.6922C39.546 20.7744 39.6893 20.8888 39.7932 21.0346C39.8971 21.1803 39.9515 21.3474 39.9543 21.5365H39.3606Z" fill="white"/>
</g>
<defs>
<clipPath id="clip0_112_884">
<rect width="40" height="8.12183" fill="white" transform="translate(0.000488281 16.0005)"/>
</clipPath>
</defs>
</svg>
