<svg width="41" height="40" viewBox="0 0 41 40" fill="none" xmlns="http://www.w3.org/2000/svg">
<path d="M20.1246 23.5271C22.0723 23.5271 23.6511 21.9482 23.6511 20.0006C23.6511 18.053 22.0723 16.4741 20.1246 16.4741C18.177 16.4741 16.5981 18.053 16.5981 20.0006C16.5981 21.9482 18.177 23.5271 20.1246 23.5271Z" fill="#61DAFB"/>
<path d="M20.1238 27.2259C30.5745 27.2259 39.0465 23.9912 39.0465 20.0009C39.0465 16.0106 30.5745 12.7759 20.1238 12.7759C9.67313 12.7759 1.20117 16.0106 1.20117 20.0009C1.20117 23.9912 9.67313 27.2259 20.1238 27.2259Z" stroke="#61DAFB" stroke-width="2.00001"/>
<path d="M13.8662 23.6132C19.0915 32.6638 26.1289 38.3834 29.5845 36.3882C33.0402 34.3931 31.6056 25.4388 26.3803 16.3882C21.1549 7.33766 14.1176 1.61811 10.6619 3.61324C7.20623 5.60837 8.64084 14.5627 13.8662 23.6132Z" stroke="#61DAFB" stroke-width="2.00001"/>
<path d="M13.8674 16.3878C8.64202 25.4384 7.20741 34.3927 10.6631 36.3878C14.1188 38.383 21.1561 32.6634 26.3814 23.6128C31.6068 14.5623 33.0414 5.60797 29.5857 3.61284C26.1301 1.6177 19.0927 7.33726 13.8674 16.3878Z" stroke="#61DAFB" stroke-width="2.00001"/>
</svg>
