<svg width="40" height="40" viewBox="0 0 40 40" fill="none" xmlns="http://www.w3.org/2000/svg">
<path d="M20.0777 0L2.40106 10V30L20.0777 40L37.7544 30V10L20.0777 0Z" fill="white"/>
<path d="M5.55742 29.3095L19.4941 37.1928V31.0528L10.8108 26.2762L5.55742 29.3095ZM4.60408 28.4462V11.9595L9.70409 14.9028V25.4995L4.60408 28.4462ZM34.6541 29.3095L20.7174 37.1928V31.0528L29.4008 26.2762L34.6541 29.3095V29.3095ZM35.6074 28.4462V11.9595L30.5074 14.9028V25.4995L35.6074 28.4462V28.4462ZM35.0108 10.8928L20.7174 2.80615V8.74282L29.8741 13.7795L29.9441 13.8195L35.0108 10.8928V10.8928ZM5.20075 10.8928L19.4941 2.80615V8.74282L10.3374 13.7795L10.2674 13.8195L5.20075 10.8928V10.8928Z" fill="#8ED6FB"/>
<path d="M20.7175 29.6566L29.2842 24.9466V15.6132L20.7175 20.5599V29.6566ZM19.4942 29.6566L10.9275 24.9466V15.6132L19.4942 20.5599V29.6566ZM28.7042 14.5332L20.1042 9.80322L11.5042 14.5332L20.1042 19.4999L28.7042 14.5332" fill="#1C78C0"/>
</svg>
