<svg width="40" height="40" viewBox="0 0 40 40" fill="none" xmlns="http://www.w3.org/2000/svg">
<path d="M18.5109 0.4265C19.5027 -0.141209 20.7946 -0.143773 21.7855 0.4265C26.771 3.24353 31.758 6.05615 36.7426 8.87489C37.6801 9.40299 38.3072 10.4464 38.2977 11.5267V28.475C38.3046 29.6 37.6156 30.6683 36.6264 31.1845C31.6574 33.986 26.6909 36.7909 21.7227 39.5924C20.7104 40.1712 19.3926 40.1266 18.4119 39.5004C16.9222 38.6368 15.4299 37.7775 13.94 36.9147C13.6356 36.7332 13.2924 36.5888 13.0774 36.2936C13.2675 36.0374 13.6072 36.0055 13.8833 35.8937C14.5052 35.696 15.0763 35.3785 15.6476 35.0705C15.792 34.9717 15.9684 35.0096 16.1069 35.098C17.3808 35.8284 18.6434 36.5801 19.9216 37.3035C20.1942 37.4609 20.4703 37.2519 20.7034 37.122C25.5796 34.3661 30.4617 31.6206 35.337 28.8638C35.5177 28.7769 35.6175 28.5851 35.6029 28.3873C35.6063 22.7964 35.6037 17.2045 35.6046 11.6136C35.6252 11.389 35.4953 11.1826 35.2923 11.0907C30.3405 8.30205 25.3912 5.5091 20.4403 2.7197C20.3545 2.66073 20.2529 2.62909 20.1488 2.62894C20.0447 2.62878 19.943 2.66013 19.857 2.71885C14.9061 5.5091 9.95767 8.30462 5.00671 11.0932C4.80441 11.1852 4.66865 11.3882 4.69272 11.6136C4.69358 17.2045 4.69272 22.7964 4.69272 28.3881C4.68414 28.4847 4.70535 28.5815 4.75349 28.6657C4.80163 28.7498 4.87439 28.8171 4.96198 28.8587C6.28316 29.6079 7.60606 30.3518 8.9281 31.0984C9.67289 31.4993 10.5874 31.7375 11.4079 31.4304C12.1321 31.1707 12.6397 30.4317 12.6258 29.6629C12.6327 24.1046 12.6224 18.5455 12.631 12.988C12.6129 12.7413 12.8469 12.5374 13.0868 12.5606C13.7216 12.5564 14.3573 12.5521 14.9921 12.5624C15.2571 12.5564 15.4394 12.8221 15.4067 13.0707C15.4041 18.6641 15.4135 24.2577 15.4024 29.8512C15.4041 31.3419 14.7917 32.964 13.4128 33.6934C11.7141 34.5734 9.61448 34.3867 7.93629 33.5429C6.48347 32.8178 5.09703 31.962 3.66999 31.1852C2.67832 30.6719 1.99265 29.5993 1.99963 28.4752V11.5267C1.98923 10.424 2.64128 9.36168 3.60802 8.84127C8.57622 6.03748 13.5436 3.23156 18.5109 0.4265Z" fill="#8CC84B"/>
<path d="M22.845 12.1675C25.0118 12.0281 27.3315 12.0849 29.2814 13.1524C30.791 13.9704 31.628 15.6872 31.6546 17.3644C31.6125 17.5906 31.376 17.7154 31.16 17.6999C30.5313 17.699 29.9025 17.7084 29.2738 17.6956C29.0071 17.7059 28.8521 17.46 28.8186 17.2242C28.638 16.4217 28.2004 15.6269 27.445 15.2399C26.2855 14.6593 24.9411 14.6885 23.6768 14.7007C22.7538 14.7497 21.7613 14.8296 20.9793 15.3724C20.3789 15.7835 20.1966 16.6135 20.4109 17.2819C20.6129 17.7619 21.1669 17.9167 21.6202 18.0595C24.2315 18.7424 26.9987 18.6745 29.5602 19.5733C30.6206 19.9397 31.658 20.652 32.021 21.7623C32.4959 23.2505 32.2877 25.0293 31.229 26.2239C30.3703 27.2071 29.1198 27.7421 27.8726 28.0328C26.2133 28.4027 24.4914 28.4121 22.8063 28.2479C21.2219 28.0672 19.573 27.651 18.3499 26.5714C17.3039 25.6632 16.7931 24.2481 16.8438 22.8824C16.8559 22.6517 17.0855 22.4909 17.3065 22.5098C17.9396 22.5047 18.5727 22.503 19.2058 22.5107C19.4586 22.4926 19.6461 22.7111 19.6591 22.9495C19.7759 23.714 20.0633 24.5165 20.73 24.9698C22.0167 25.8 23.6312 25.7431 25.1045 25.7663C26.3251 25.7122 27.6953 25.6958 28.6914 24.8891C29.217 24.4289 29.3727 23.6591 29.2306 22.9968C29.0768 22.4376 28.4918 22.177 27.9895 22.0066C25.4117 21.1912 22.6136 21.4871 20.0607 20.5649C19.0243 20.1987 18.0221 19.5062 17.6239 18.4414C17.0683 16.9345 17.3229 15.0705 18.4926 13.9161C19.6332 12.7679 21.2796 12.3257 22.845 12.1674V12.1675Z" fill="#8CC84B"/>
</svg>
