<svg width="40" height="40" viewBox="0 0 40 40" fill="none" xmlns="http://www.w3.org/2000/svg">
<path d="M7.08236 0.399902H32.9157C36.8324 0.399902 39.999 3.56657 39.999 7.48324V32.3166C39.999 36.2332 36.8324 39.3999 32.9157 39.3999H7.08236C3.16569 39.3999 -0.000976562 36.2332 -0.000976562 32.3166V7.48324C-0.000976562 3.56657 3.16569 0.399902 7.08236 0.399902Z" fill="#330000"/>
<path d="M19.3829 23.8H13.1829L11.9162 27.7166C11.8829 27.8666 11.7496 27.9666 11.5996 27.95H8.46624C8.28291 27.95 8.23291 27.85 8.28291 27.65L13.6496 12.2C13.6996 12.0333 13.7496 11.85 13.8162 11.65C13.8829 11.3 13.9162 10.9333 13.9162 10.5666C13.8996 10.4833 13.9662 10.4 14.0496 10.3833C14.0662 10.3833 14.0829 10.3833 14.0996 10.3833H18.3662C18.4996 10.3833 18.5662 10.4333 18.5829 10.5166L24.6662 27.6833C24.7162 27.8666 24.6662 27.95 24.4996 27.95H21.0162C20.8996 27.9666 20.7829 27.8833 20.7496 27.7666L19.3829 23.8ZM14.1496 20.4166H18.3829C18.2829 20.0666 18.1496 19.65 17.9996 19.2166C17.8496 18.7666 17.6996 18.2833 17.5496 17.7833C17.3829 17.2666 17.2329 16.7666 17.0662 16.25C16.8996 15.7333 16.7496 15.25 16.6162 14.7666C16.4829 14.3 16.3662 13.8666 16.2496 13.4666H16.2162C16.0662 14.1833 15.8829 14.9 15.6496 15.6166C15.3996 16.4166 15.1496 17.25 14.8829 18.0833C14.6496 18.9333 14.3996 19.7166 14.1496 20.4166Z" fill="#FF9A00"/>
<path d="M28.299 13.2336C27.749 13.2503 27.2157 13.0336 26.8157 12.6503C26.4323 12.2336 26.2323 11.6836 26.249 11.117C26.2323 10.5503 26.449 10.017 26.849 9.63363C27.249 9.25029 27.7823 9.05029 28.3323 9.05029C28.9823 9.05029 29.4823 9.25029 29.849 9.63363C30.2157 10.0336 30.4157 10.567 30.399 11.117C30.4157 11.6836 30.2157 12.2336 29.8157 12.6503C29.4323 13.0503 28.8657 13.267 28.299 13.2336ZM26.4323 27.7003V14.867C26.4323 14.7003 26.499 14.6336 26.649 14.6336H29.949C30.099 14.6336 30.1657 14.717 30.1657 14.867V27.7003C30.1657 27.8836 30.099 27.967 29.949 27.967H26.6823C26.5157 27.967 26.4323 27.867 26.4323 27.7003Z" fill="#FF9A00"/>
</svg>
