<svg width="40" height="40" viewBox="0 0 40 40" fill="none" xmlns="http://www.w3.org/2000/svg">
<path d="M19.9656 29.7752C28.8151 41.8389 37.4756 26.408 37.4628 17.1283C37.448 6.15702 26.3276 0.0251465 19.9584 0.0251465C9.73529 0.0249902 -0.000488281 8.4739 -0.000488281 20.0339C-0.000488281 32.883 11.1597 40.0002 19.9584 40.0002C17.9673 39.7134 11.3319 38.2917 11.2428 23.0084C11.1826 12.6719 14.6147 8.54202 19.944 10.3587C20.0634 10.403 25.8225 12.6748 25.8225 20.0962C25.8225 27.4862 19.9656 29.775 19.9656 29.775V29.7752Z" fill="url(#paint0_linear_112_945)"/>
<path d="M19.9556 10.3496C14.1081 8.33413 6.94482 13.1537 6.94482 22.8068C6.94482 38.5688 18.625 39.9994 20.0409 39.9994C30.2641 39.9994 39.9998 31.5504 39.9998 19.9905C39.9998 7.14148 28.8397 0.024294 20.0409 0.024294C22.478 -0.313206 33.1761 2.66179 33.1761 17.2833C33.1761 26.8187 25.188 32.0096 19.9923 29.7918C19.873 29.7476 14.1137 27.4757 14.1137 20.0543C14.1137 12.6641 19.9556 10.3496 19.9556 10.3496V10.3496Z" fill="url(#paint1_linear_112_945)"/>
<defs>
<linearGradient id="paint0_linear_112_945" x1="5.91534" y1="5.91626" x2="35.795" y2="32.1588" gradientUnits="userSpaceOnUse">
<stop/>
<stop offset="1" stop-color="white"/>
</linearGradient>
<linearGradient id="paint1_linear_112_945" x1="34.0949" y1="34.0942" x2="1.75446" y2="12.0092" gradientUnits="userSpaceOnUse">
<stop/>
<stop offset="1" stop-color="white"/>
</linearGradient>
</defs>
</svg>
