<svg width="40" height="40" viewBox="0 0 40 40" fill="none" xmlns="http://www.w3.org/2000/svg">
<path d="M20.0001 0.400391C8.95576 0.400391 0 9.35459 0 20.4005C0 29.2372 5.73062 36.734 13.6773 39.3786C14.6768 39.5637 15.0439 38.9448 15.0439 38.4165C15.0439 37.9396 15.0252 36.364 15.0167 34.6928C9.45253 35.9027 8.27845 32.3331 8.27845 32.3331C7.36868 30.0213 6.05783 29.4067 6.05783 29.4067C4.2433 28.1654 6.1946 28.1908 6.1946 28.1908C8.203 28.332 9.26054 30.2519 9.26054 30.2519C11.0443 33.3095 13.9393 32.4255 15.0806 31.9146C15.26 30.6218 15.7784 29.7396 16.3503 29.2402C11.9081 28.7343 7.23818 27.0194 7.23818 19.356C7.23818 17.1725 8.01948 15.3883 9.29897 13.9877C9.09129 13.4839 8.40676 11.4497 9.49268 8.69484C9.49268 8.69484 11.1722 8.15729 14.9941 10.745C16.5894 10.3017 18.3004 10.0796 20.0001 10.0721C21.6998 10.0796 23.412 10.3017 25.0104 10.745C28.8278 8.15729 30.505 8.69484 30.505 8.69484C31.5936 11.4497 30.9087 13.4839 30.701 13.9877C31.9833 15.3883 32.7593 17.1723 32.7593 19.356C32.7593 27.0376 28.0806 28.7291 23.6271 29.2242C24.3444 29.8448 24.9836 31.0621 24.9836 32.9279C24.9836 35.6039 24.9604 37.7577 24.9604 38.4165C24.9604 38.9487 25.3204 39.5723 26.3343 39.376C34.2766 36.7284 40 29.2342 40 20.4005C40 9.35459 31.0455 0.400391 20.0001 0.400391Z" fill="white"/>
<path d="M7.49075 28.8912C7.44683 28.9904 7.29029 29.0202 7.14802 28.9522C7.00293 28.8869 6.92136 28.7514 6.96842 28.6516C7.01155 28.5494 7.1681 28.5208 7.31288 28.5895C7.45828 28.6546 7.54111 28.7914 7.49075 28.8912V28.8912ZM8.47457 29.7689C8.3792 29.8574 8.19269 29.8163 8.06611 29.6765C7.93529 29.5371 7.91082 29.3507 8.0076 29.2609C8.10595 29.1726 8.28681 29.2138 8.41794 29.3534C8.54876 29.4944 8.57417 29.6797 8.47441 29.7691L8.47457 29.7689ZM9.14952 30.892C9.02686 30.9772 8.8264 30.8974 8.70264 30.7195C8.58013 30.5418 8.58013 30.3284 8.7053 30.2429C8.82953 30.1575 9.02686 30.2343 9.15235 30.4108C9.27469 30.5916 9.27469 30.805 9.14937 30.8922L9.14952 30.892ZM10.2908 32.1928C10.1812 32.3136 9.94777 32.2813 9.7768 32.1163C9.60206 31.955 9.55327 31.7262 9.66323 31.6053C9.77413 31.4842 10.0089 31.5182 10.1812 31.6818C10.3548 31.8427 10.4078 32.0733 10.291 32.1928H10.2908ZM11.7659 32.632C11.7178 32.7886 11.4928 32.8598 11.2663 32.7933C11.0401 32.7247 10.8921 32.5412 10.9377 32.3829C10.9848 32.2253 11.2106 32.1511 11.4389 32.2223C11.6647 32.2906 11.8131 32.4727 11.7661 32.632H11.7659ZM13.4449 32.8182C13.4506 32.9832 13.2584 33.12 13.0206 33.123C12.7814 33.1282 12.588 32.9947 12.5855 32.8325C12.5855 32.6659 12.7732 32.5304 13.0123 32.5265C13.2501 32.5218 13.4449 32.6543 13.4449 32.8182V32.8182ZM15.0941 32.755C15.1227 32.9159 14.9573 33.0813 14.7213 33.1252C14.4891 33.1675 14.2742 33.0683 14.2446 32.9087C14.2157 32.7437 14.3842 32.5786 14.6158 32.5357C14.8524 32.4946 15.064 32.5914 15.0941 32.755" fill="white"/>
</svg>
