<svg width="40" height="40" viewBox="0 0 40 40" fill="none" xmlns="http://www.w3.org/2000/svg">
<path d="M32.3287 25.9287C32.7487 26.3487 32.4509 27.0665 31.8576 27.0665H20.7998C20.4309 27.0665 20.1331 27.3643 20.1331 27.7332V38.7909C20.1331 39.3843 19.4154 39.682 18.9954 39.262L7.0598 27.3265C6.89314 27.1598 6.7998 26.9332 6.7998 26.6976V14.3998C6.7998 14.0309 7.09758 13.7332 7.46647 13.7332H20.1331L32.3287 25.9287Z" fill="white"/>
<path d="M20.1323 13.7337L7.93679 1.53817C7.51679 1.11817 7.81457 0.400391 8.4079 0.400391H32.799C33.1679 0.400391 33.4657 0.698168 33.4657 1.06706V13.0671C33.4657 13.4359 33.1679 13.7337 32.799 13.7337H20.1323Z" fill="white"/>
</svg>
