<svg width="40" height="40" viewBox="0 0 40 40" fill="none" xmlns="http://www.w3.org/2000/svg">
<path fill-rule="evenodd" clip-rule="evenodd" d="M8.30715 4.00024C6.0248 4.00024 4.33598 5.9979 4.4116 8.16431C4.48418 10.2456 4.38988 12.9413 3.71129 15.1395C3.03027 17.344 1.87934 18.7409 -0.000976562 18.9202V20.9446C1.87934 21.1243 3.03027 22.5206 3.71121 24.7253C4.38988 26.9236 4.4841 29.6192 4.41152 31.7006C4.3359 33.8667 6.02473 35.8646 8.30746 35.8646H31.6939C33.9763 35.8646 35.6648 33.867 35.5892 31.7006C35.5166 29.6192 35.6109 26.9236 36.2895 24.7253C36.9705 22.5206 38.1186 21.1238 39.999 20.9446V18.9202C38.1187 18.7406 36.9706 17.3443 36.2895 15.1395C35.6108 12.9416 35.5166 10.2456 35.5892 8.16431C35.6648 5.99821 33.9763 4.00024 31.6939 4.00024H8.30684H8.30715ZM27.1177 23.6149C27.1177 26.5979 24.8926 28.407 21.2 28.407H14.9143C14.7344 28.407 14.562 28.3356 14.4349 28.2085C14.3077 28.0813 14.2363 27.9089 14.2363 27.7291V12.1359C14.2363 11.9561 14.3077 11.7836 14.4349 11.6565C14.562 11.5293 14.7344 11.4579 14.9143 11.4579H21.1643C24.2432 11.4579 26.2639 13.1257 26.2639 15.6863C26.2639 17.4836 24.9046 19.0926 23.1728 19.3745V19.4682C25.5303 19.7268 27.1177 21.3596 27.1177 23.6149V23.6149ZM20.5146 13.607H16.9306V18.6695H19.9493C22.2829 18.6695 23.5696 17.7299 23.5696 16.0502C23.5693 14.4762 22.4631 13.607 20.5146 13.607ZM16.9306 20.6782V26.2572H20.6465C23.0762 26.2572 24.3632 25.2823 24.3632 23.4501C24.3632 21.6179 23.0401 20.6779 20.4903 20.6779H16.9306V20.6782Z" fill="white"/>
</svg>
