<svg width="40" height="40" viewBox="0 0 40 40" fill="none" xmlns="http://www.w3.org/2000/svg">
<path d="M0.000976562 -0.000488281H40.001V39.9995H0.000976562V-0.000488281Z" fill="#017ACB"/>
<path d="M19.2087 14.8121H21.1275V18.1246H15.94V32.8621L15.8025 32.8996C15.615 32.9496 13.1462 32.9496 12.615 32.8934L12.19 32.8559V18.1246H7.00244V14.8121L8.64619 14.7934C9.5462 14.7809 11.8587 14.7809 13.7837 14.7934C15.7087 14.8059 18.1462 14.8121 19.2087 14.8121V14.8121ZM33.8525 31.2996C33.09 32.1059 32.2712 32.5559 30.9087 32.9246C30.315 33.0871 30.215 33.0934 28.8775 33.0871C27.54 33.0809 27.4337 33.0809 26.7837 32.9121C25.1025 32.4809 23.7462 31.6371 22.8212 30.4434C22.5587 30.1059 22.1275 29.4059 22.1275 29.3184C22.1275 29.2934 22.19 29.2371 22.2712 29.1996C22.3525 29.1621 22.5212 29.0559 22.6587 28.9746C22.7962 28.8934 23.0462 28.7434 23.215 28.6559C23.3837 28.5684 23.8712 28.2809 24.2962 28.0246C24.7212 27.7684 25.1087 27.5621 25.1525 27.5621C25.1962 27.5621 25.2775 27.6496 25.34 27.7559C25.715 28.3871 26.59 29.1934 27.2087 29.4684C27.59 29.6309 28.4337 29.8121 28.84 29.8121C29.215 29.8121 29.9025 29.6496 30.2712 29.4809C30.665 29.2996 30.865 29.1184 31.1025 28.7559C31.265 28.4996 31.2837 28.4309 31.2775 27.9434C31.2775 27.4934 31.2525 27.3684 31.1275 27.1621C30.7775 26.5871 30.3025 26.2871 28.3775 25.4371C26.39 24.5559 25.4962 24.0309 24.7712 23.3246C24.2337 22.7996 24.1275 22.6559 23.79 21.9996C23.3525 21.1559 23.2962 20.8809 23.29 19.6246C23.2837 18.7434 23.3025 18.4559 23.3962 18.1559C23.5275 17.7059 23.9525 16.8371 24.1462 16.6184C24.5462 16.1496 24.69 16.0059 24.9712 15.7746C25.8212 15.0746 27.1462 14.6121 28.415 14.5684C28.5587 14.5684 29.0337 14.5934 29.4775 14.6246C30.7525 14.7309 31.6212 15.0434 32.4587 15.7121C33.09 16.2121 34.0462 17.3871 33.9525 17.5434C33.89 17.6371 31.3962 19.2996 31.2337 19.3496C31.1337 19.3809 31.065 19.3434 30.9275 19.1809C30.0775 18.1621 29.7337 17.9434 28.9087 17.8934C28.3212 17.8559 28.0087 17.9246 27.615 18.1871C27.2025 18.4621 27.0025 18.8809 27.0025 19.4621C27.0087 20.3121 27.3337 20.7121 28.5337 21.3059C29.3087 21.6871 29.9712 21.9996 30.0212 21.9996C30.0962 21.9996 31.7025 22.7996 32.1212 23.0496C34.0712 24.1934 34.865 25.3684 35.0712 27.3934C35.2212 28.9184 34.79 30.3121 33.8525 31.2996V31.2996Z" fill="white"/>
</svg>
