<svg width="40" height="40" viewBox="0 0 40 40" fill="none" xmlns="http://www.w3.org/2000/svg">
<path d="M7.08333 0.399658H32.9167C36.8333 0.399658 40 3.56632 40 7.48299V32.3163C40 36.233 36.8333 39.3997 32.9167 39.3997H7.08333C3.16667 39.3997 0 36.233 0 32.3163V7.48299C0 3.56632 3.16667 0.399658 7.08333 0.399658Z" fill="#001E36"/>
<path d="M8.99951 27.749V10.599C8.99951 10.4823 9.04951 10.4157 9.16618 10.4157C9.44951 10.4157 9.71618 10.4157 10.0995 10.399C10.4995 10.3823 10.9162 10.3823 11.3662 10.3657C11.8162 10.349 12.2995 10.349 12.8162 10.3323C13.3328 10.3157 13.8328 10.3157 14.3328 10.3157C15.6995 10.3157 16.8328 10.4823 17.7662 10.8323C18.5995 11.1157 19.3662 11.5823 19.9995 12.199C20.5328 12.7323 20.9495 13.3823 21.2162 14.099C21.4662 14.799 21.5995 15.5157 21.5995 16.2657C21.5995 17.699 21.2662 18.8823 20.5995 19.8157C19.9328 20.749 18.9995 21.449 17.9162 21.849C16.7828 22.2657 15.5328 22.4157 14.1662 22.4157C13.7662 22.4157 13.4995 22.4157 13.3328 22.399C13.1662 22.3823 12.9328 22.3823 12.6162 22.3823V27.7323C12.6328 27.849 12.5495 27.949 12.4328 27.9657C12.4162 27.9657 12.3995 27.9657 12.3662 27.9657H9.19951C9.06618 27.9657 8.99951 27.899 8.99951 27.749ZM12.6328 13.6323V19.2323C12.8662 19.249 13.0828 19.2657 13.2828 19.2657H14.1662C14.8162 19.2657 15.4662 19.1657 16.0828 18.9657C16.6162 18.8157 17.0828 18.499 17.4495 18.0823C17.7995 17.6657 17.9662 17.099 17.9662 16.3657C17.9828 15.849 17.8495 15.3323 17.5828 14.8823C17.2995 14.449 16.8995 14.1157 16.4162 13.9323C15.7995 13.6823 15.1328 13.5823 14.4495 13.599C14.0162 13.599 13.6328 13.599 13.3162 13.6157C12.9828 13.599 12.7495 13.6157 12.6328 13.6323Z" fill="#31A8FF"/>
<path d="M31.9996 18.2152C31.4996 17.9485 30.9663 17.7652 30.3996 17.6485C29.783 17.5152 29.1663 17.4318 28.533 17.4318C28.1996 17.4152 27.8496 17.4652 27.533 17.5485C27.3163 17.5985 27.133 17.7152 27.0163 17.8818C26.933 18.0152 26.883 18.1818 26.883 18.3318C26.883 18.4818 26.9496 18.6318 27.0496 18.7652C27.1996 18.9485 27.3996 19.0985 27.6163 19.2152C27.9996 19.4152 28.3996 19.5985 28.7996 19.7652C29.6996 20.0652 30.5663 20.4818 31.3663 20.9818C31.9163 21.3318 32.3663 21.7985 32.683 22.3652C32.9496 22.8985 33.083 23.4818 33.0663 24.0818C33.083 24.8652 32.8496 25.6485 32.4163 26.2985C31.9496 26.9652 31.2996 27.4818 30.5496 27.7818C29.733 28.1318 28.733 28.3152 27.533 28.3152C26.7663 28.3152 26.0163 28.2485 25.2663 28.0985C24.683 27.9985 24.0996 27.8152 23.5663 27.5652C23.4496 27.4985 23.3663 27.3818 23.383 27.2485V24.3485C23.383 24.2985 23.3996 24.2318 23.4496 24.1985C23.4996 24.1652 23.5497 24.1818 23.5997 24.2152C24.2497 24.5985 24.933 24.8652 25.6663 25.0318C26.2996 25.1985 26.9663 25.2818 27.633 25.2818C28.2663 25.2818 28.7163 25.1985 29.0163 25.0485C29.283 24.9318 29.4663 24.6485 29.4663 24.3485C29.4663 24.1152 29.333 23.8985 29.0663 23.6818C28.7996 23.4652 28.2496 23.2152 27.433 22.8985C26.583 22.5985 25.7996 22.1985 25.0663 21.6985C24.5496 21.3318 24.1163 20.8485 23.7996 20.2818C23.533 19.7485 23.3996 19.1652 23.4163 18.5818C23.4163 17.8652 23.6163 17.1818 23.983 16.5652C24.3996 15.8985 25.0163 15.3652 25.733 15.0318C26.5163 14.6318 27.4996 14.4485 28.683 14.4485C29.3663 14.4485 30.0663 14.4985 30.7496 14.5985C31.2496 14.6652 31.733 14.7985 32.183 14.9818C32.2496 14.9985 32.3163 15.0652 32.3496 15.1318C32.3663 15.1985 32.383 15.2652 32.383 15.3318V18.0485C32.383 18.1152 32.3496 18.1818 32.2996 18.2152C32.1496 18.2485 32.0663 18.2485 31.9996 18.2152Z" fill="#31A8FF"/>
</svg>
