<svg width="40" height="40" viewBox="0 0 40 40" fill="none" xmlns="http://www.w3.org/2000/svg">
<path d="M34.4431 22.4437C33.0477 22.451 31.8348 22.7871 30.8193 23.2839C30.4467 22.546 30.0741 21.8884 30.0083 21.4062C29.9352 20.8436 29.8476 20.5002 29.9352 19.8281C30.0229 19.1559 30.4174 18.1988 30.4101 18.1257C30.4028 18.0527 30.3225 17.7093 29.5188 17.702C28.7151 17.6947 28.021 17.8554 27.9407 18.0673C27.8603 18.2792 27.7069 18.7614 27.6046 19.2582C27.4658 19.9888 25.9972 22.5971 25.157 23.9633C24.8867 23.43 24.6529 22.9624 24.6017 22.5898C24.5287 22.0272 24.441 21.6838 24.5287 21.0117C24.6164 20.3395 25.0109 19.3824 25.0036 19.3093C24.9963 19.2363 24.9159 18.8929 24.1122 18.8856C23.3086 18.8783 22.6145 19.039 22.5341 19.2509C22.4537 19.4628 22.3661 19.9596 22.198 20.4418C22.03 20.924 20.0792 25.2785 19.5678 26.4036C19.3048 26.9808 19.0783 27.4411 18.9176 27.7552C18.9176 27.7552 18.9102 27.7772 18.8883 27.8137C18.7495 28.084 18.6691 28.2301 18.6691 28.2301C18.6691 28.2301 18.6691 28.2301 18.6691 28.2374C18.5595 28.4347 18.4427 28.6174 18.3842 28.6174C18.3404 28.6174 18.26 28.0913 18.3988 27.3753C18.6911 25.8629 19.3851 23.5104 19.3778 23.43C19.3778 23.3862 19.5093 22.977 18.9249 22.7651C18.355 22.5533 18.1504 22.904 18.0993 22.904C18.0481 22.904 18.0116 23.0282 18.0116 23.0282C18.0116 23.0282 18.6472 20.3833 16.7988 20.3833C15.6444 20.3833 14.0517 21.6473 13.2626 22.7871C12.7658 23.0574 11.7064 23.6346 10.5739 24.2556C10.1429 24.4967 9.69718 24.7378 9.28073 24.9643C9.25151 24.9351 9.22228 24.8985 9.19306 24.8693C6.95738 22.4802 2.82209 20.7925 2.99744 17.5851C3.06319 16.4161 3.46503 13.3475 10.9392 9.62137C17.091 6.58932 21.9861 7.42952 22.8337 9.29259C24.0465 11.952 20.2107 16.891 13.8544 17.607C11.4287 17.8773 10.1575 16.9421 9.836 16.5914C9.49992 16.2261 9.44877 16.2042 9.32457 16.2773C9.12 16.3869 9.25151 16.7156 9.32457 16.9056C9.51453 17.4024 10.2963 18.2792 11.6187 18.7102C12.7877 19.0901 15.6298 19.302 19.071 17.9723C22.9213 16.4818 25.9315 12.3393 25.0474 8.86884C24.1634 5.34727 18.3184 4.18559 12.7877 6.15095C9.49992 7.31993 5.93451 9.16108 3.37005 11.5575C0.323386 14.4069 -0.15882 16.8837 0.0384464 17.9212C0.747143 21.6035 5.82492 23.9999 7.85603 25.7753C7.75375 25.8337 7.65877 25.8849 7.5784 25.9287C6.56284 26.4328 2.69058 28.4566 1.72617 30.5973C0.630245 33.023 1.90152 34.7618 2.74172 34.9956C5.35002 35.719 8.03138 34.4185 9.47069 32.2704C10.91 30.1224 10.7347 27.3315 10.0698 26.0529C10.0625 26.0383 10.0552 26.0237 10.0406 26.0091C10.3036 25.8556 10.5739 25.6949 10.8369 25.5415C11.3557 25.2346 11.8671 24.9497 12.3055 24.7159C12.0571 25.3954 11.8744 26.2063 11.7867 27.3753C11.6772 28.7489 12.2397 30.5316 12.9776 31.233C13.3064 31.5398 13.6937 31.5471 13.9421 31.5471C14.8042 31.5471 15.1914 30.8311 15.6225 29.9836C16.1485 28.9461 16.6234 27.7406 16.6234 27.7406C16.6234 27.7406 16.0316 30.9992 17.639 30.9992C18.2235 30.9992 18.8153 30.2393 19.0783 29.8521C19.0783 29.8594 19.0783 29.8594 19.0783 29.8594C19.0783 29.8594 19.0929 29.8375 19.1221 29.7864C19.1806 29.6914 19.2171 29.6329 19.2171 29.6329C19.2171 29.6329 19.2171 29.6256 19.2171 29.6183C19.4509 29.2092 19.9769 28.2813 20.7587 26.7397C21.767 24.7524 22.7387 22.2683 22.7387 22.2683C22.7387 22.2683 22.8263 22.8747 23.1259 23.883C23.3012 24.4748 23.6666 25.125 23.9588 25.7534C23.725 26.0821 23.5789 26.2648 23.5789 26.2648C23.5789 26.2648 23.5789 26.2648 23.5862 26.2721C23.3962 26.5205 23.1917 26.7908 22.9652 27.0539C22.1688 28.0037 21.219 29.0923 21.0875 29.4064C20.934 29.779 20.9706 30.0494 21.2628 30.2686C21.4747 30.4293 21.8546 30.4512 22.2419 30.4293C22.9579 30.3782 23.462 30.2028 23.7104 30.0932C24.0976 29.9544 24.5506 29.7425 24.9744 29.4284C25.7561 28.8512 26.231 28.0256 26.1872 26.937C26.1653 26.3379 25.968 25.7387 25.7269 25.1762C25.7999 25.0739 25.8657 24.9716 25.9388 24.8693C27.1735 23.0647 28.1306 21.0847 28.1306 21.0847C28.1306 21.0847 28.2183 21.6911 28.5178 22.6994C28.664 23.2108 28.9635 23.7661 29.2265 24.3067C28.0649 25.2492 27.3489 26.3452 27.0931 27.0612C26.6328 28.3909 26.9909 28.99 27.6703 29.1288C27.9772 29.1946 28.4156 29.0484 28.737 28.9096C29.1462 28.7781 29.6284 28.5516 30.0887 28.2155C30.8704 27.6383 31.623 26.8347 31.5791 25.7461C31.5572 25.2492 31.4257 24.7597 31.243 24.2848C32.2294 23.8757 33.5006 23.6492 35.1226 23.8391C38.6003 24.2483 39.2871 26.4182 39.1556 27.3315C39.0241 28.2448 38.2935 28.7416 38.0524 28.895C37.8113 29.0484 37.7309 29.0996 37.7528 29.2092C37.782 29.3699 37.8989 29.3626 38.1035 29.3334C38.3885 29.2822 39.9301 28.5955 39.9958 26.915C40.1054 24.767 38.0597 22.4218 34.4431 22.4437ZM7.61493 31.4887C6.46056 32.7453 4.8532 33.2202 4.15912 32.8184C3.41389 32.3873 3.70614 30.5316 5.12353 29.2019C5.98566 28.3909 7.09619 27.6383 7.83411 27.1781C8.00216 27.0758 8.25057 26.9296 8.55012 26.747C8.60126 26.7178 8.63048 26.7032 8.63048 26.7032C8.68893 26.6666 8.74738 26.6301 8.80583 26.5936C9.32457 28.4932 8.82775 30.1663 7.61493 31.4887ZM16.017 25.7753C15.6152 26.7543 14.775 29.2603 14.2635 29.1215C13.8252 29.0046 13.5548 27.105 14.1759 25.2273C14.49 24.2848 15.1549 23.1597 15.5421 22.7213C16.1704 22.0199 16.8645 21.7861 17.0326 22.0711C17.2444 22.4437 16.2654 25.1616 16.017 25.7753ZM22.9505 29.0923C22.7825 29.1799 22.6218 29.2384 22.5487 29.1946C22.4976 29.1653 22.6218 29.0484 22.6218 29.0484C22.6218 29.0484 23.4912 28.1132 23.8346 27.6895C24.0319 27.4411 24.2657 27.1488 24.5141 26.8201C24.5141 26.8493 24.5141 26.8858 24.5141 26.915C24.5141 28.0329 23.4328 28.7854 22.9505 29.0923ZM28.2987 27.8721C28.1744 27.7845 28.1964 27.4922 28.6128 26.579C28.7736 26.221 29.1535 25.6218 29.8037 25.0447C29.8768 25.2785 29.9279 25.5049 29.9206 25.7168C29.9133 27.1269 28.9051 27.653 28.2987 27.8721Z" fill="#CD6799"/>
</svg>
