<svg width="40" height="40" viewBox="0 0 40 40" fill="none" xmlns="http://www.w3.org/2000/svg">
<path d="M20.001 8.00024C14.6675 8.00024 11.3342 10.6662 10.0007 15.9977C12.001 13.3317 14.3344 12.3324 17.0009 12.9986C18.5224 13.3788 19.6098 14.4827 20.8138 15.7041C22.7745 17.6939 25.0439 19.9967 30.0012 19.9967C35.3342 19.9967 38.668 17.3307 40.001 11.9987C38.0012 14.6647 35.6679 15.6646 33.0009 14.9984C31.4798 14.6182 30.3924 13.5143 29.1884 12.2928C27.2277 10.3031 24.9578 8.00024 20.001 8.00024V8.00024ZM10.0007 19.9967C4.66773 19.9967 1.33398 22.6627 0.000976562 27.9947C2.00073 25.3287 4.3341 24.3288 7.0011 24.9956C8.52217 25.3762 9.60958 26.4796 10.8135 27.7006C12.7743 29.6903 15.0441 31.9937 20.001 31.9937C25.3345 31.9937 28.6677 29.3277 30.0012 23.9957C28.001 26.6617 25.6676 27.6616 23.0011 26.9948C21.4795 26.6152 20.3921 25.5108 19.1882 24.2898C17.2274 22.3001 14.9581 19.9967 10.0007 19.9967V19.9967Z" fill="#06B6D4"/>
</svg>
