<svg width="40" height="40" viewBox="0 0 40 40" fill="none" xmlns="http://www.w3.org/2000/svg">
<path d="M40 -0.000976562H0V39.999H40V-0.000976562Z" fill="#F7DF1E"/>
<path d="M26.8705 31.2495C27.6762 32.5651 28.7245 33.5321 30.5784 33.5321C32.1359 33.5321 33.1308 32.7537 33.1308 31.6781C33.1308 30.3892 32.1086 29.9327 30.3943 29.1829L29.4546 28.7797C26.7422 27.6241 24.9403 26.1765 24.9403 23.1162C24.9403 20.2972 27.0883 18.1511 30.4451 18.1511C32.8349 18.1511 34.553 18.9829 35.7911 21.1606L32.8641 23.04C32.2197 21.8845 31.5245 21.4292 30.4451 21.4292C29.3441 21.4292 28.6464 22.1276 28.6464 23.04C28.6464 24.1676 29.3448 24.6241 30.9575 25.3226L31.8972 25.7251C35.0908 27.0946 36.894 28.4908 36.894 31.6299C36.894 35.014 34.2356 36.868 30.6654 36.868C27.1746 36.868 24.9194 35.2045 23.8159 33.0241L26.8705 31.2495ZM13.5924 31.5753C14.1829 32.6229 14.72 33.5086 16.0114 33.5086C17.2464 33.5086 18.0254 33.0254 18.0254 31.1467V18.3657H21.7841V31.1975C21.7841 35.0895 19.5022 36.861 16.1714 36.861C13.1619 36.861 11.4191 35.3035 10.5327 33.4276L13.5924 31.5753Z" fill="black"/>
</svg>
