<svg width="40" height="40" viewBox="0 0 40 40" fill="none" xmlns="http://www.w3.org/2000/svg">
<path d="M2.84278 19.9989C2.84278 26.7904 6.78947 32.6591 12.5125 35.4406L4.32821 13.0164C3.34711 15.2134 2.84092 17.5928 2.84278 19.9989V19.9989ZM31.5825 19.1331C31.5825 17.0127 30.8209 15.5442 30.1676 14.4013C29.2979 12.988 28.483 11.7911 28.483 10.3778C28.483 8.80068 29.6789 7.33254 31.3638 7.33254C31.4399 7.33254 31.512 7.34201 31.5864 7.34626C28.5336 4.54972 24.4668 2.84229 20 2.84229C14.0061 2.84229 8.73261 5.91763 5.66478 10.5757C6.06732 10.5878 6.447 10.5959 6.7689 10.5959C8.5635 10.5959 11.3414 10.3782 11.3414 10.3782C12.2663 10.3237 12.3754 11.6821 11.4518 11.7915C11.4518 11.7915 10.522 11.9008 9.48773 11.955L15.7357 30.5393L19.4908 19.2784L16.8173 11.9547C15.8934 11.9005 15.0181 11.7911 15.0181 11.7911C14.0936 11.7369 14.202 10.3233 15.1265 10.3778C15.1265 10.3778 17.9599 10.5956 19.6458 10.5956C21.4401 10.5956 24.2184 10.3778 24.2184 10.3778C25.1439 10.3233 25.2526 11.6818 24.3284 11.7911C24.3284 11.7911 23.397 11.9005 22.3647 11.9547L28.565 30.3983L30.276 24.6795C31.0181 22.3064 31.5825 20.6019 31.5825 19.1331V19.1331Z" fill="white"/>
<path d="M20.3011 21.4997L15.1533 36.4579C16.7271 36.9217 18.3594 37.1572 20.0001 37.1572C21.9981 37.1572 23.9141 36.8114 25.6976 36.1846C25.6498 36.1097 25.6089 36.0306 25.5755 35.9482L20.3011 21.4997ZM35.0549 11.7673C35.1287 12.3138 35.1705 12.9008 35.1705 13.5316C35.1705 15.2726 34.8453 17.2298 33.8659 19.677L28.6251 34.8294C33.7259 31.855 37.1567 26.3288 37.1567 19.9989C37.1613 17.1217 36.4383 14.2901 35.0549 11.7673V11.7673Z" fill="white"/>
<path d="M20.0002 0C8.97237 0 0 8.9717 0 19.9995C0 31.0286 8.97204 40.0003 20.0002 40.0003C31.0277 40.0003 40.0014 31.0289 40.0014 19.9995C40.001 8.9717 31.0277 0 20.0002 0ZM20.0002 39.0833C9.47807 39.0833 0.917054 30.5223 0.917054 19.9995C0.917054 9.47773 9.47775 0.917378 20.0002 0.917378C30.522 0.917378 39.0824 9.47773 39.0824 19.9995C39.0824 30.5223 30.5217 39.0833 20.0002 39.0833Z" fill="white"/>
</svg>
