<svg width="1523" height="227" viewBox="0 0 1523 227" fill="none" xmlns="http://www.w3.org/2000/svg">
<mask id="path-1-outside-1_95_16076" maskUnits="userSpaceOnUse" x="-1" y="-1" width="1525" height="229" fill="black">
<rect fill="white" x="-1" y="-1" width="1525" height="229"/>
<path d="M0.596593 223V3.36363H74.8097C92.0403 3.36363 106.125 6.47371 117.064 12.6939C128.074 18.8426 136.225 27.1719 141.516 37.6818C146.806 48.1918 149.452 59.9171 149.452 72.858C149.452 85.7988 146.806 97.5599 141.516 108.141C136.296 118.723 128.217 127.159 117.278 133.451C106.339 139.671 92.3262 142.781 75.2386 142.781H22.0455V119.188H74.3807C86.1776 119.188 95.6508 117.15 102.8 113.075C109.95 108.999 115.134 103.494 118.351 96.5589C121.64 89.5523 123.284 81.652 123.284 72.858C123.284 64.0639 121.64 56.1993 118.351 49.2642C115.134 42.3291 109.914 36.8954 102.693 32.9631C95.4721 28.9593 85.8916 26.9574 73.9517 26.9574H27.1932V223H0.596593ZM192.296 223V3.36363H266.509C283.668 3.36363 297.753 6.29497 308.763 12.1577C319.774 17.9489 327.924 25.9207 333.215 36.0732C338.506 46.2256 341.151 57.7723 341.151 70.7131C341.151 83.6539 338.506 95.129 333.215 105.138C327.924 115.148 319.809 123.013 308.87 128.732C297.931 134.38 283.954 137.205 266.938 137.205H206.881V113.182H266.08C277.805 113.182 287.243 111.466 294.392 108.034C301.614 104.602 306.833 99.7405 310.05 93.4489C313.339 87.0857 314.983 79.5071 314.983 70.7131C314.983 61.919 313.339 54.2332 310.05 47.6555C306.761 41.0779 301.506 36.0017 294.285 32.4268C287.064 28.7805 277.519 26.9574 265.651 26.9574H218.892V223H192.296ZM295.679 124.335L349.73 223H318.844L265.651 124.335H295.679ZM570.788 113.182C570.788 136.347 566.605 156.366 558.24 173.239C549.875 190.112 538.4 203.124 523.815 212.276C509.23 221.427 492.571 226.003 473.839 226.003C455.107 226.003 438.448 221.427 423.863 212.276C409.278 203.124 397.803 190.112 389.438 173.239C381.073 156.366 376.89 136.347 376.89 113.182C376.89 90.017 381.073 69.9981 389.438 53.125C397.803 36.2519 409.278 23.2396 423.863 14.0881C438.448 4.93655 455.107 0.360787 473.839 0.360787C492.571 0.360787 509.23 4.93655 523.815 14.0881C538.4 23.2396 549.875 36.2519 558.24 53.125C566.605 69.9981 570.788 90.017 570.788 113.182ZM545.049 113.182C545.049 94.1638 541.868 78.1129 535.504 65.0291C529.213 51.9453 520.669 42.0431 509.873 35.3224C499.149 28.6018 487.137 25.2415 473.839 25.2415C460.541 25.2415 448.494 28.6018 437.698 35.3224C426.973 42.0431 418.429 51.9453 412.066 65.0291C405.775 78.1129 402.629 94.1638 402.629 113.182C402.629 132.2 405.775 148.251 412.066 161.335C418.429 174.418 426.973 184.321 437.698 191.041C448.494 197.762 460.541 201.122 473.839 201.122C487.137 201.122 499.149 197.762 509.873 191.041C520.669 184.321 529.213 174.418 535.504 161.335C541.868 148.251 545.049 132.2 545.049 113.182ZM699.588 3.36363H726.185V160.369C726.185 174.383 723.611 186.287 718.463 196.082C713.316 205.877 706.059 213.312 696.693 218.388C687.327 223.465 676.28 226.003 663.554 226.003C651.543 226.003 640.854 223.822 631.488 219.461C622.122 215.028 614.758 208.737 609.396 200.586C604.034 192.435 601.352 182.748 601.352 171.523H627.52C627.52 177.743 629.057 183.177 632.132 187.824C635.277 192.4 639.567 195.974 645.001 198.548C650.435 201.122 656.619 202.409 663.554 202.409C671.204 202.409 677.71 200.8 683.073 197.583C688.435 194.366 692.51 189.647 695.298 183.427C698.158 177.135 699.588 169.449 699.588 160.369V3.36363ZM779.485 223V3.36363H912.039V26.9574H806.082V101.17H905.176V124.764H806.082V199.406H913.755V223H779.485ZM1136.72 72H1110.12C1108.55 64.3499 1105.79 57.6293 1101.86 51.8381C1098 46.0469 1093.28 41.1851 1087.71 37.2528C1082.2 33.2491 1076.09 30.2462 1069.37 28.2443C1062.65 26.2424 1055.64 25.2415 1048.35 25.2415C1035.05 25.2415 1023 28.6018 1012.21 35.3224C1001.48 42.0431 992.937 51.9453 986.574 65.0291C980.282 78.1129 977.137 94.1638 977.137 113.182C977.137 132.2 980.282 148.251 986.574 161.335C992.937 174.418 1001.48 184.321 1012.21 191.041C1023 197.762 1035.05 201.122 1048.35 201.122C1055.64 201.122 1062.65 200.121 1069.37 198.119C1076.09 196.117 1082.2 193.15 1087.71 189.218C1093.28 185.214 1098 180.317 1101.86 174.526C1105.79 168.663 1108.55 161.942 1110.12 154.364H1136.72C1134.71 165.589 1131.07 175.634 1125.78 184.499C1120.49 193.365 1113.91 200.908 1106.04 207.128C1098.18 213.277 1089.35 217.96 1079.55 221.177C1069.83 224.394 1059.43 226.003 1048.35 226.003C1029.61 226.003 1012.96 221.427 998.371 212.276C983.786 203.124 972.311 190.112 963.945 173.239C955.58 156.366 951.398 136.347 951.398 113.182C951.398 90.017 955.58 69.9981 963.945 53.125C972.311 36.2519 983.786 23.2396 998.371 14.0881C1012.96 4.93655 1029.61 0.360787 1048.35 0.360787C1059.43 0.360787 1069.83 1.96945 1079.55 5.18678C1089.35 8.40412 1098.18 13.1229 1106.04 19.343C1113.91 25.4917 1120.49 32.9988 1125.78 41.8643C1131.07 50.6584 1134.71 60.7036 1136.72 72ZM1167.68 26.9574V3.36363H1332.41V26.9574H1263.34V223H1236.75V26.9574H1167.68ZM1493.57 58.2727C1492.28 47.4053 1487.07 38.9688 1477.91 32.9631C1468.76 26.9574 1457.54 23.9545 1444.24 23.9545C1434.52 23.9545 1426.01 25.5275 1418.72 28.6733C1411.49 31.8191 1405.85 36.1446 1401.77 41.6498C1397.77 47.1551 1395.76 53.411 1395.76 60.4176C1395.76 66.2803 1397.16 71.3208 1399.95 75.5391C1402.81 79.6858 1406.45 83.1534 1410.89 85.9418C1415.32 88.6586 1419.97 90.9107 1424.83 92.6981C1429.69 94.4141 1434.16 95.8082 1438.23 96.8807L1460.54 102.886C1466.26 104.388 1472.62 106.461 1479.63 109.107C1486.71 111.752 1493.46 115.362 1499.9 119.938C1506.41 124.442 1511.77 130.234 1515.99 137.312C1520.2 144.39 1522.31 153.077 1522.31 163.372C1522.31 175.241 1519.2 185.965 1512.98 195.545C1506.83 205.126 1497.83 212.74 1485.96 218.388C1474.16 224.037 1459.83 226.861 1442.95 226.861C1427.22 226.861 1413.6 224.323 1402.09 219.246C1390.65 214.17 1381.64 207.092 1375.07 198.012C1368.56 188.932 1364.88 178.386 1364.02 166.375H1391.47C1392.19 174.669 1394.98 181.532 1399.84 186.966C1404.77 192.328 1410.99 196.332 1418.5 198.977C1426.08 201.551 1434.23 202.838 1442.95 202.838C1453.1 202.838 1462.22 201.194 1470.3 197.905C1478.38 194.545 1484.78 189.897 1489.5 183.963C1494.22 177.957 1496.57 170.951 1496.57 162.943C1496.57 155.651 1494.54 149.716 1490.46 145.141C1486.39 140.565 1481.02 136.847 1474.37 133.987C1467.73 131.127 1460.54 128.625 1452.82 126.48L1425.79 118.759C1408.63 113.825 1395.05 106.783 1385.04 97.6314C1375.03 88.4799 1370.03 76.5043 1370.03 61.7045C1370.03 49.4072 1373.35 38.6828 1380 29.5312C1386.72 20.3082 1395.73 13.1586 1407.03 8.08238C1418.39 2.93465 1431.08 0.360787 1445.1 0.360787C1459.25 0.360787 1471.84 2.8989 1482.85 7.97513C1493.86 12.9799 1502.58 19.8435 1509.01 28.566C1515.52 37.2886 1518.95 47.1908 1519.31 58.2727H1493.57Z"/>
</mask>
<path d="M0.596593 223H-0.403407V224H0.596593V223ZM0.596593 3.36363V2.36363H-0.403407V3.36363H0.596593ZM117.064 12.6939L116.57 13.5632L116.576 13.567L117.064 12.6939ZM141.516 37.6818L140.622 38.1315L140.622 38.1315L141.516 37.6818ZM141.516 108.141L140.621 107.694L140.619 107.699L141.516 108.141ZM117.278 133.451L117.773 134.32L117.777 134.318L117.278 133.451ZM22.0455 142.781H21.0455V143.781H22.0455V142.781ZM22.0455 119.188V118.188H21.0455V119.188H22.0455ZM102.8 113.075L102.305 112.206L102.305 112.206L102.8 113.075ZM118.351 96.5589L117.446 96.134L117.444 96.1381L118.351 96.5589ZM118.351 49.2642L117.444 49.685L117.447 49.6927L118.351 49.2642ZM102.693 32.9631L102.208 33.8377L102.215 33.8413L102.693 32.9631ZM27.1932 26.9574V25.9574H26.1932V26.9574H27.1932ZM27.1932 223V224H28.1932V223H27.1932ZM1.59659 223V3.36363H-0.403407V223H1.59659ZM0.596593 4.36363H74.8097V2.36363H0.596593V4.36363ZM74.8097 4.36363C91.9282 4.36363 105.827 7.45456 116.57 13.5632L117.558 11.8246C106.423 5.49287 92.1523 2.36363 74.8097 2.36363V4.36363ZM116.576 13.567C127.425 19.6256 135.428 27.813 140.622 38.1315L142.409 37.2322C137.022 26.5307 128.723 18.0596 117.551 11.8208L116.576 13.567ZM140.622 38.1315C145.836 48.4884 148.452 60.0575 148.452 72.858H150.452C150.452 59.7768 147.777 47.8951 142.409 37.2322L140.622 38.1315ZM148.452 72.858C148.452 85.6583 145.836 97.2642 140.621 107.694L142.41 108.589C147.777 97.8556 150.452 85.9392 150.452 72.858H148.452ZM140.619 107.699C135.493 118.09 127.559 126.384 116.78 132.584L117.777 134.318C128.875 127.935 137.099 119.356 142.412 108.584L140.619 107.699ZM116.784 132.582C106.04 138.691 92.2124 141.781 75.2386 141.781V143.781C92.44 143.781 106.639 140.651 117.773 134.32L116.784 132.582ZM75.2386 141.781H22.0455V143.781H75.2386V141.781ZM23.0455 142.781V119.188H21.0455V142.781H23.0455ZM22.0455 120.188H74.3807V118.188H22.0455V120.188ZM74.3807 120.188C86.2804 120.188 95.9437 118.134 103.296 113.943L102.305 112.206C95.358 116.166 86.0747 118.188 74.3807 118.188V120.188ZM103.296 113.943C110.611 109.773 115.946 104.118 119.258 96.9798L117.444 96.1381C114.321 102.87 109.289 108.225 102.305 112.206L103.296 113.943ZM119.256 96.9838C122.615 89.8272 124.284 81.7788 124.284 72.858H122.284C122.284 81.5251 120.664 89.2774 117.446 96.134L119.256 96.9838ZM124.284 72.858C124.284 63.9373 122.615 55.923 119.254 48.8357L117.447 49.6927C120.664 56.4757 122.284 64.1905 122.284 72.858H124.284ZM119.258 48.8434C115.943 41.6987 110.566 36.1115 103.171 32.0848L102.215 33.8413C109.263 37.6793 114.324 42.9594 117.444 49.685L119.258 48.8434ZM103.178 32.0885C95.757 27.9738 85.9904 25.9574 73.9517 25.9574V27.9574C85.7927 27.9574 95.1871 29.9447 102.208 33.8376L103.178 32.0885ZM73.9517 25.9574H27.1932V27.9574H73.9517V25.9574ZM26.1932 26.9574V223H28.1932V26.9574H26.1932ZM27.1932 222H0.596593V224H27.1932V222ZM192.296 223H191.296V224H192.296V223ZM192.296 3.36363V2.36363H191.296V3.36363H192.296ZM308.763 12.1577L308.293 13.0403L308.298 13.0427L308.763 12.1577ZM333.215 36.0732L332.328 36.5353L332.328 36.5353L333.215 36.0732ZM333.215 105.138L332.331 104.671L332.331 104.671L333.215 105.138ZM308.87 128.732L309.329 129.621L309.334 129.618L308.87 128.732ZM206.881 137.205H205.881V138.205H206.881V137.205ZM206.881 113.182V112.182H205.881V113.182H206.881ZM294.392 108.034L293.963 107.131L293.96 107.133L294.392 108.034ZM310.05 93.4489L309.162 92.9897L309.16 92.9936L310.05 93.4489ZM294.285 32.4268L293.834 33.3195L293.841 33.323L294.285 32.4268ZM218.892 26.9574V25.9574H217.892V26.9574H218.892ZM218.892 223V224H219.892V223H218.892ZM295.679 124.335L296.556 123.855L296.272 123.335H295.679V124.335ZM349.73 223V224H351.419L350.607 222.52L349.73 223ZM318.844 223L317.964 223.475L318.247 224H318.844V223ZM265.651 124.335V123.335H263.976L264.771 124.81L265.651 124.335ZM193.296 223V3.36363H191.296V223H193.296ZM192.296 4.36363H266.509V2.36363H192.296V4.36363ZM266.509 4.36363C283.563 4.36363 297.471 7.27814 308.293 13.0403L309.233 11.275C298.034 5.31181 283.773 2.36363 266.509 2.36363V4.36363ZM308.298 13.0427C319.144 18.7477 327.14 26.5792 332.328 36.5353L334.102 35.611C328.709 25.2622 320.403 17.15 309.229 11.2726L308.298 13.0427ZM332.328 36.5353C337.535 46.5274 340.151 57.912 340.151 70.7131H342.151C342.151 57.6325 339.476 45.9239 334.102 35.611L332.328 36.5353ZM340.151 70.7131C340.151 83.5145 337.535 94.8251 332.331 104.671L334.099 105.606C339.476 95.4329 342.151 83.7933 342.151 70.7131H340.151ZM332.331 104.671C327.143 114.485 319.184 122.211 308.407 127.846L309.334 129.618C320.435 123.814 328.705 115.81 334.099 105.606L332.331 104.671ZM308.412 127.844C297.658 133.396 283.852 136.205 266.938 136.205V138.205C284.056 138.205 298.205 135.365 309.329 129.621L308.412 127.844ZM266.938 136.205H206.881V138.205H266.938V136.205ZM207.881 137.205V113.182H205.881V137.205H207.881ZM206.881 114.182H266.08V112.182H206.881V114.182ZM266.08 114.182C277.889 114.182 287.492 112.456 294.825 108.936L293.96 107.133C286.994 110.476 277.721 112.182 266.08 112.182V114.182ZM294.822 108.937C302.214 105.424 307.61 100.417 310.94 93.9042L309.16 92.9936C306.056 99.0638 301.013 103.781 293.963 107.131L294.822 108.937ZM310.938 93.908C314.315 87.3742 315.983 79.631 315.983 70.7131H313.983C313.983 79.3832 312.362 86.7972 309.162 92.9897L310.938 93.908ZM315.983 70.7131C315.983 61.7939 314.315 53.9495 310.945 47.2083L309.156 48.1027C312.363 54.5169 313.983 62.0442 313.983 70.7131H315.983ZM310.945 47.2083C307.549 40.4171 302.125 35.1923 294.729 31.5307L293.841 33.323C300.887 36.811 305.974 41.7387 309.156 48.1027L310.945 47.2083ZM294.736 31.5342C287.325 27.7921 277.608 25.9574 265.651 25.9574V27.9574C277.43 27.9574 286.803 29.769 293.834 33.3195L294.736 31.5342ZM265.651 25.9574H218.892V27.9574H265.651V25.9574ZM217.892 26.9574V223H219.892V26.9574H217.892ZM218.892 222H192.296V224H218.892V222ZM294.802 124.816L348.853 223.48L350.607 222.52L296.556 123.855L294.802 124.816ZM349.73 222H318.844V224H349.73V222ZM319.724 222.525L266.531 123.861L264.771 124.81L317.964 223.475L319.724 222.525ZM265.651 125.335H295.679V123.335H265.651V125.335ZM558.24 173.239L557.344 172.794L557.344 172.794L558.24 173.239ZM523.815 212.276L524.346 213.123L524.346 213.123L523.815 212.276ZM423.863 212.276L423.332 213.123L423.332 213.123L423.863 212.276ZM389.438 173.239L390.334 172.794L390.334 172.794L389.438 173.239ZM389.438 53.125L388.542 52.6808L389.438 53.125ZM523.815 14.0881L524.346 13.241L524.346 13.241L523.815 14.0881ZM558.24 53.125L557.344 53.5692L557.344 53.5692L558.24 53.125ZM535.504 65.0291L534.603 65.4625L534.605 65.4665L535.504 65.0291ZM509.873 35.3224L509.342 36.1698L509.345 36.1714L509.873 35.3224ZM437.698 35.3224L437.169 34.4735L437.167 34.4751L437.698 35.3224ZM412.066 65.0291L411.167 64.5918L411.165 64.5958L412.066 65.0291ZM412.066 161.335L411.165 161.768L411.167 161.772L412.066 161.335ZM437.698 191.041L437.167 191.889L437.169 191.89L437.698 191.041ZM509.873 191.041L509.345 190.192L509.342 190.194L509.873 191.041ZM535.504 161.335L534.605 160.897L534.603 160.901L535.504 161.335ZM569.788 113.182C569.788 136.227 565.627 156.088 557.344 172.794L559.136 173.683C567.584 156.644 571.788 136.466 571.788 113.182H569.788ZM557.344 172.794C549.053 189.518 537.698 202.384 523.283 211.429L524.346 213.123C539.102 203.864 550.697 190.705 559.136 173.683L557.344 172.794ZM523.283 211.429C508.871 220.471 492.4 225.003 473.839 225.003V227.003C492.742 227.003 509.588 222.383 524.346 213.123L523.283 211.429ZM473.839 225.003C455.278 225.003 438.807 220.471 424.395 211.429L423.332 213.123C438.09 222.383 454.936 227.003 473.839 227.003V225.003ZM424.395 211.429C409.98 202.384 398.625 189.518 390.334 172.794L388.542 173.683C396.981 190.705 408.576 203.864 423.332 213.123L424.395 211.429ZM390.334 172.794C382.051 156.088 377.89 136.227 377.89 113.182H375.89C375.89 136.466 380.094 156.644 388.542 173.683L390.334 172.794ZM377.89 113.182C377.89 90.1364 382.051 70.2761 390.334 53.5692L388.542 52.6808C380.094 69.7201 375.89 89.8977 375.89 113.182H377.89ZM390.334 53.5692C398.625 36.8454 409.98 23.9795 424.395 14.9351L423.332 13.241C408.576 22.4997 396.981 35.6584 388.542 52.6808L390.334 53.5692ZM424.395 14.9351C438.807 5.89228 455.278 1.36079 473.839 1.36079V-0.639213C454.936 -0.639213 438.09 3.98081 423.332 13.241L424.395 14.9351ZM473.839 1.36079C492.4 1.36079 508.871 5.89228 523.283 14.9351L524.346 13.241C509.588 3.98081 492.742 -0.639213 473.839 -0.639213V1.36079ZM523.283 14.9351C537.698 23.9795 549.053 36.8454 557.344 53.5692L559.136 52.6808C550.697 35.6584 539.102 22.4997 524.346 13.241L523.283 14.9351ZM557.344 53.5692C565.627 70.2761 569.788 90.1364 569.788 113.182H571.788C571.788 89.8977 567.584 69.7201 559.136 52.6808L557.344 53.5692ZM546.049 113.182C546.049 94.057 542.85 77.847 536.404 64.5918L534.605 65.4665C540.885 78.3788 544.049 94.2706 544.049 113.182H546.049ZM536.406 64.5958C530.044 51.3657 521.381 41.3081 510.402 34.4735L509.345 36.1714C519.957 42.7781 528.382 52.5249 534.603 65.4625L536.406 64.5958ZM510.404 34.4751C499.512 27.6495 487.315 24.2415 473.839 24.2415V26.2415C486.959 26.2415 498.785 29.5541 509.342 36.1698L510.404 34.4751ZM473.839 24.2415C460.363 24.2415 448.131 27.6495 437.169 34.4735L438.226 36.1714C448.856 29.5541 460.719 26.2415 473.839 26.2415V24.2415ZM437.167 34.4751C426.261 41.3094 417.6 51.3652 411.167 64.5918L412.966 65.4665C419.259 52.5254 427.686 42.7768 438.229 36.1698L437.167 34.4751ZM411.165 64.5958C404.791 77.8499 401.629 94.0584 401.629 113.182H403.629C403.629 94.2692 406.758 78.3759 412.967 65.4625L411.165 64.5958ZM401.629 113.182C401.629 132.305 404.791 148.514 411.165 161.768L412.967 160.901C406.758 147.988 403.629 132.094 403.629 113.182H401.629ZM411.167 161.772C417.6 174.998 426.261 185.054 437.167 191.889L438.229 190.194C427.686 183.587 419.259 173.838 412.966 160.897L411.167 161.772ZM437.169 191.89C448.131 198.714 460.363 202.122 473.839 202.122V200.122C460.719 200.122 448.856 196.81 438.226 190.192L437.169 191.89ZM473.839 202.122C487.315 202.122 499.512 198.714 510.404 191.889L509.342 190.194C498.785 196.81 486.959 200.122 473.839 200.122V202.122ZM510.402 191.89C521.381 185.056 530.044 174.998 536.406 161.768L534.603 160.901C528.382 173.839 519.957 183.586 509.345 190.192L510.402 191.89ZM536.404 161.772C542.85 148.517 546.049 132.307 546.049 113.182H544.049C544.049 132.093 540.885 147.985 534.605 160.897L536.404 161.772ZM699.588 3.36363V2.36363H698.588V3.36363H699.588ZM726.185 3.36363H727.185V2.36363H726.185V3.36363ZM718.463 196.082L719.348 196.547L719.348 196.547L718.463 196.082ZM696.693 218.388L697.169 219.268L697.169 219.268L696.693 218.388ZM631.488 219.461L631.06 220.365L631.066 220.367L631.488 219.461ZM609.396 200.586L608.56 201.136L608.56 201.136L609.396 200.586ZM601.352 171.523V170.523H600.352V171.523H601.352ZM627.52 171.523H628.52V170.523H627.52V171.523ZM632.132 187.824L631.298 188.376L631.302 188.383L631.308 188.39L632.132 187.824ZM645.001 198.548L645.429 197.645L645.429 197.645L645.001 198.548ZM683.073 197.583L682.558 196.726L682.558 196.726L683.073 197.583ZM695.298 183.427L694.388 183.013L694.386 183.018L695.298 183.427ZM699.588 4.36363H726.185V2.36363H699.588V4.36363ZM725.185 3.36363V160.369H727.185V3.36363H725.185ZM725.185 160.369C725.185 174.263 722.633 185.998 717.578 195.616L719.348 196.547C724.589 186.575 727.185 174.502 727.185 160.369H725.185ZM717.578 195.616C712.519 205.243 705.401 212.531 696.216 217.509L697.169 219.268C706.716 214.093 714.112 206.51 719.348 196.547L717.578 195.616ZM696.216 217.509C687.022 222.492 676.146 225.003 663.554 225.003V227.003C676.415 227.003 687.631 224.437 697.169 219.268L696.216 217.509ZM663.554 225.003C651.665 225.003 641.124 222.845 631.91 218.554L631.066 220.367C640.584 224.8 651.421 227.003 663.554 227.003V225.003ZM631.916 218.557C622.705 214.198 615.486 208.024 610.231 200.036L608.56 201.136C614.03 209.449 621.539 215.859 631.06 220.365L631.916 218.557ZM610.231 200.036C604.992 192.072 602.352 182.582 602.352 171.523H600.352C600.352 182.913 603.075 192.798 608.56 201.136L610.231 200.036ZM601.352 172.523H627.52V170.523H601.352V172.523ZM626.52 171.523C626.52 177.915 628.103 183.546 631.298 188.376L632.966 187.272C630.012 182.807 628.52 177.57 628.52 171.523H626.52ZM631.308 188.39C634.562 193.123 638.993 196.809 644.573 199.452L645.429 197.645C640.141 195.14 635.993 191.676 632.956 187.257L631.308 188.39ZM644.573 199.452C650.159 202.098 656.494 203.409 663.554 203.409V201.409C656.744 201.409 650.71 200.146 645.429 197.645L644.573 199.452ZM663.554 203.409C671.345 203.409 678.038 201.77 683.587 198.441L682.558 196.726C677.383 199.831 671.063 201.409 663.554 201.409V203.409ZM683.587 198.441C689.141 195.108 693.347 190.225 696.211 183.836L694.386 183.018C691.673 189.069 687.729 193.623 682.558 196.726L683.587 198.441ZM696.209 183.841C699.143 177.385 700.588 169.549 700.588 160.369H698.588C698.588 169.349 697.173 176.885 694.388 183.013L696.209 183.841ZM700.588 160.369V3.36363H698.588V160.369H700.588ZM779.485 223H778.485V224H779.485V223ZM779.485 3.36363V2.36363H778.485V3.36363H779.485ZM912.039 3.36363H913.039V2.36363H912.039V3.36363ZM912.039 26.9574V27.9574H913.039V26.9574H912.039ZM806.082 26.9574V25.9574H805.082V26.9574H806.082ZM806.082 101.17H805.082V102.17H806.082V101.17ZM905.176 101.17H906.176V100.17H905.176V101.17ZM905.176 124.764V125.764H906.176V124.764H905.176ZM806.082 124.764V123.764H805.082V124.764H806.082ZM806.082 199.406H805.082V200.406H806.082V199.406ZM913.755 199.406H914.755V198.406H913.755V199.406ZM913.755 223V224H914.755V223H913.755ZM780.485 223V3.36363H778.485V223H780.485ZM779.485 4.36363H912.039V2.36363H779.485V4.36363ZM911.039 3.36363V26.9574H913.039V3.36363H911.039ZM912.039 25.9574H806.082V27.9574H912.039V25.9574ZM805.082 26.9574V101.17H807.082V26.9574H805.082ZM806.082 102.17H905.176V100.17H806.082V102.17ZM904.176 101.17V124.764H906.176V101.17H904.176ZM905.176 123.764H806.082V125.764H905.176V123.764ZM805.082 124.764V199.406H807.082V124.764H805.082ZM806.082 200.406H913.755V198.406H806.082V200.406ZM912.755 199.406V223H914.755V199.406H912.755ZM913.755 222H779.485V224H913.755V222ZM1136.72 72V73H1137.91L1137.7 71.8255L1136.72 72ZM1110.12 72L1109.14 72.2014L1109.3 73H1110.12V72ZM1101.86 51.8381L1101.03 52.3928L1101.03 52.3998L1101.86 51.8381ZM1087.71 37.2528L1087.12 38.0616L1087.12 38.0659L1087.13 38.0701L1087.71 37.2528ZM1069.37 28.2443L1069.08 29.2027L1069.08 29.2027L1069.37 28.2443ZM1012.21 35.3224L1011.68 34.4735L1011.67 34.4751L1012.21 35.3224ZM986.574 65.0291L985.675 64.5918L985.673 64.5958L986.574 65.0291ZM986.574 161.335L985.673 161.768L985.675 161.772L986.574 161.335ZM1012.21 191.041L1011.67 191.889L1011.68 191.89L1012.21 191.041ZM1069.37 198.119L1069.08 197.161L1069.08 197.161L1069.37 198.119ZM1087.71 189.218L1088.29 190.032L1088.29 190.03L1087.71 189.218ZM1101.86 174.526L1101.03 173.969L1101.03 173.971L1101.86 174.526ZM1110.12 154.364V153.364H1109.31L1109.14 154.16L1110.12 154.364ZM1136.72 154.364L1137.7 154.539L1137.91 153.364H1136.72V154.364ZM1125.78 184.499L1124.92 183.987L1124.92 183.987L1125.78 184.499ZM1106.04 207.128L1106.66 207.916L1106.66 207.912L1106.04 207.128ZM1079.55 221.177L1079.24 220.227L1079.24 220.227L1079.55 221.177ZM998.371 212.276L997.839 213.123L997.839 213.123L998.371 212.276ZM963.945 173.239L964.841 172.794L964.841 172.794L963.945 173.239ZM963.945 53.125L963.05 52.6808L963.945 53.125ZM1079.55 5.18678L1079.24 6.13617L1079.24 6.13685L1079.55 5.18678ZM1106.04 19.343L1105.42 20.1274L1105.43 20.1308L1106.04 19.343ZM1125.78 41.8643L1124.92 42.3768L1124.92 42.3799L1125.78 41.8643ZM1136.72 71H1110.12V73H1136.72V71ZM1111.1 71.7986C1109.5 64.0345 1106.7 57.1884 1102.69 51.2763L1101.03 52.3998C1104.88 58.0701 1107.59 64.6653 1109.14 72.2014L1111.1 71.7986ZM1102.69 51.2834C1098.77 45.3917 1093.96 40.4403 1088.28 36.4356L1087.13 38.0701C1092.6 41.9299 1097.24 46.702 1101.03 52.3928L1102.69 51.2834ZM1088.29 36.4441C1082.69 32.3716 1076.48 29.3192 1069.65 27.2859L1069.08 29.2027C1075.7 31.1732 1081.71 34.1265 1087.12 38.0616L1088.29 36.4441ZM1069.65 27.2859C1062.84 25.2553 1055.73 24.2415 1048.35 24.2415V26.2415C1055.55 26.2415 1062.46 27.2295 1069.08 29.2027L1069.65 27.2859ZM1048.35 24.2415C1034.87 24.2415 1022.64 27.6495 1011.68 34.4735L1012.73 36.1714C1023.36 29.5541 1035.23 26.2415 1048.35 26.2415V24.2415ZM1011.67 34.4751C1000.77 41.3094 992.107 51.3652 985.675 64.5918L987.473 65.4665C993.767 52.5254 1002.19 42.7768 1012.74 36.1698L1011.67 34.4751ZM985.673 64.5958C979.299 77.8499 976.137 94.0584 976.137 113.182H978.137C978.137 94.2692 981.266 78.3759 987.475 65.4625L985.673 64.5958ZM976.137 113.182C976.137 132.305 979.299 148.514 985.673 161.768L987.475 160.901C981.266 147.988 978.137 132.094 978.137 113.182H976.137ZM985.675 161.772C992.107 174.998 1000.77 185.054 1011.67 191.889L1012.74 190.194C1002.19 183.587 993.767 173.838 987.473 160.897L985.675 161.772ZM1011.68 191.89C1022.64 198.714 1034.87 202.122 1048.35 202.122V200.122C1035.23 200.122 1023.36 196.81 1012.73 190.192L1011.68 191.89ZM1048.35 202.122C1055.73 202.122 1062.84 201.108 1069.65 199.078L1069.08 197.161C1062.46 199.134 1055.55 200.122 1048.35 200.122V202.122ZM1069.65 199.078C1076.47 197.045 1082.69 194.031 1088.29 190.032L1087.12 188.404C1081.71 192.27 1075.7 195.189 1069.08 197.161L1069.65 199.078ZM1088.29 190.03C1093.96 185.955 1098.77 180.97 1102.69 175.08L1101.03 173.971C1097.23 179.663 1092.6 184.473 1087.12 188.406L1088.29 190.03ZM1102.69 175.083C1106.7 169.103 1109.5 162.26 1111.1 154.567L1109.14 154.16C1107.59 161.625 1104.88 168.223 1101.03 173.969L1102.69 175.083ZM1110.12 155.364H1136.72V153.364H1110.12V155.364ZM1135.73 154.188C1133.75 165.306 1130.14 175.235 1124.92 183.987L1126.64 185.012C1131.99 176.032 1135.68 165.871 1137.7 154.539L1135.73 154.188ZM1124.92 183.987C1119.69 192.751 1113.19 200.201 1105.42 206.344L1106.66 207.912C1114.63 201.614 1121.28 193.978 1126.64 185.012L1124.92 183.987ZM1105.43 206.34C1097.66 212.415 1088.93 217.044 1079.24 220.227L1079.87 222.127C1089.77 218.875 1098.7 214.138 1106.66 207.916L1105.43 206.34ZM1079.24 220.227C1069.63 223.409 1059.33 225.003 1048.35 225.003V227.003C1059.53 227.003 1070.04 225.38 1079.87 222.126L1079.24 220.227ZM1048.35 225.003C1029.79 225.003 1013.31 220.471 998.902 211.429L997.839 213.123C1012.6 222.383 1029.44 227.003 1048.35 227.003V225.003ZM998.902 211.429C984.488 202.384 973.132 189.518 964.841 172.794L963.05 173.683C971.489 190.705 983.083 203.864 997.839 213.123L998.902 211.429ZM964.841 172.794C956.559 156.088 952.398 136.227 952.398 113.182H950.398C950.398 136.466 954.602 156.644 963.05 173.683L964.841 172.794ZM952.398 113.182C952.398 90.1364 956.559 70.2761 964.841 53.5692L963.05 52.6808C954.602 69.7201 950.398 89.8977 950.398 113.182H952.398ZM964.841 53.5692C973.132 36.8454 984.488 23.9795 998.902 14.9351L997.839 13.241C983.083 22.4997 971.489 35.6584 963.05 52.6808L964.841 53.5692ZM998.902 14.9351C1013.31 5.89228 1029.79 1.36079 1048.35 1.36079V-0.639213C1029.44 -0.639213 1012.6 3.98081 997.839 13.241L998.902 14.9351ZM1048.35 1.36079C1059.33 1.36079 1069.63 2.955 1079.24 6.13616L1079.87 4.23741C1070.04 0.983903 1059.53 -0.639213 1048.35 -0.639213V1.36079ZM1079.24 6.13685C1088.93 9.31854 1097.65 13.9822 1105.42 20.1274L1106.66 18.5587C1098.71 12.2635 1089.77 7.48969 1079.87 4.23672L1079.24 6.13685ZM1105.43 20.1308C1113.19 26.2009 1119.69 33.6136 1124.92 42.3768L1126.64 41.3519C1121.28 32.3841 1114.63 24.7825 1106.66 18.5552L1105.43 20.1308ZM1124.92 42.3799C1130.14 51.0574 1133.75 60.9845 1135.73 72.1745L1137.7 71.8255C1135.68 60.4227 1131.99 50.2594 1126.63 41.3488L1124.92 42.3799ZM1167.68 26.9574H1166.68V27.9574H1167.68V26.9574ZM1167.68 3.36363V2.36363H1166.68V3.36363H1167.68ZM1332.41 3.36363H1333.41V2.36363H1332.41V3.36363ZM1332.41 26.9574V27.9574H1333.41V26.9574H1332.41ZM1263.34 26.9574V25.9574H1262.34V26.9574H1263.34ZM1263.34 223V224H1264.34V223H1263.34ZM1236.75 223H1235.75V224H1236.75V223ZM1236.75 26.9574H1237.75V25.9574H1236.75V26.9574ZM1168.68 26.9574V3.36363H1166.68V26.9574H1168.68ZM1167.68 4.36363H1332.41V2.36363H1167.68V4.36363ZM1331.41 3.36363V26.9574H1333.41V3.36363H1331.41ZM1332.41 25.9574H1263.34V27.9574H1332.41V25.9574ZM1262.34 26.9574V223H1264.34V26.9574H1262.34ZM1263.34 222H1236.75V224H1263.34V222ZM1237.75 223V26.9574H1235.75V223H1237.75ZM1236.75 25.9574H1167.68V27.9574H1236.75V25.9574ZM1493.57 58.2727L1492.58 58.3903L1492.68 59.2727H1493.57V58.2727ZM1477.91 32.9631L1477.37 33.7991L1477.37 33.7991L1477.91 32.9631ZM1418.72 28.6733L1418.32 27.7551L1418.32 27.7565L1418.72 28.6733ZM1401.77 41.6498L1400.97 41.0549L1400.96 41.0617L1401.77 41.6498ZM1399.95 75.5391L1399.11 76.0905L1399.12 76.0987L1399.12 76.1068L1399.95 75.5391ZM1410.89 85.9418L1410.35 86.7883L1410.36 86.7944L1410.89 85.9418ZM1424.83 92.6981L1424.48 93.6368L1424.5 93.6411L1424.83 92.6981ZM1438.23 96.8807L1438.49 95.915L1438.49 95.9136L1438.23 96.8807ZM1460.54 102.886L1460.28 103.852L1460.29 103.854L1460.54 102.886ZM1479.63 109.107L1479.28 110.042L1479.28 110.043L1479.63 109.107ZM1499.9 119.938L1499.32 120.753L1499.33 120.76L1499.9 119.938ZM1515.99 137.312L1516.84 136.8L1516.84 136.8L1515.99 137.312ZM1512.98 195.545L1512.14 195.001L1512.14 195.005L1512.98 195.545ZM1485.96 218.388L1485.53 217.486L1485.53 217.487L1485.96 218.388ZM1402.09 219.246L1401.69 220.16L1401.69 220.161L1402.09 219.246ZM1375.07 198.012L1374.25 198.595L1374.26 198.599L1375.07 198.012ZM1364.02 166.375V165.375H1362.95L1363.02 166.446L1364.02 166.375ZM1391.47 166.375L1392.47 166.289L1392.39 165.375H1391.47V166.375ZM1399.84 186.966L1399.09 187.633L1399.1 187.643L1399.84 186.966ZM1418.5 198.977L1418.17 199.92L1418.18 199.924L1418.5 198.977ZM1470.3 197.905L1470.68 198.831L1470.68 198.828L1470.3 197.905ZM1489.5 183.963L1490.28 184.585L1490.28 184.581L1489.5 183.963ZM1490.46 145.141L1491.21 144.476L1491.21 144.476L1490.46 145.141ZM1474.37 133.987L1473.98 134.906L1473.98 134.906L1474.37 133.987ZM1452.82 126.48L1452.54 127.442L1452.55 127.444L1452.82 126.48ZM1425.79 118.759L1425.52 119.72L1425.52 119.72L1425.79 118.759ZM1385.04 97.6314L1384.37 98.3694L1384.37 98.3694L1385.04 97.6314ZM1380 29.5312L1379.19 28.9423L1379.19 28.9435L1380 29.5312ZM1407.03 8.08238L1407.44 8.99452L1407.44 8.99333L1407.03 8.08238ZM1482.85 7.97513L1482.43 8.88328L1482.43 8.8855L1482.85 7.97513ZM1509.01 28.566L1508.21 29.1597L1508.21 29.1639L1509.01 28.566ZM1519.31 58.2727V59.2727H1520.34L1520.31 58.2405L1519.31 58.2727ZM1494.56 58.1551C1493.24 46.9942 1487.86 38.2947 1478.46 32.127L1477.37 33.7991C1486.27 39.6428 1491.33 47.8164 1492.58 58.3903L1494.56 58.1551ZM1478.46 32.127C1469.12 25.9933 1457.69 22.9545 1444.24 22.9545V24.9545C1457.38 24.9545 1468.41 27.9214 1477.37 33.7991L1478.46 32.127ZM1444.24 22.9545C1434.41 22.9545 1425.76 24.5446 1418.32 27.7551L1419.11 29.5915C1426.25 26.5103 1434.62 24.9545 1444.24 24.9545V22.9545ZM1418.32 27.7565C1410.96 30.9617 1405.16 35.3889 1400.97 41.0549L1402.57 42.2448C1406.53 36.9004 1412.03 32.6766 1419.11 29.5901L1418.32 27.7565ZM1400.96 41.0617C1396.83 46.7431 1394.76 53.2063 1394.76 60.4176H1396.76C1396.76 53.6157 1398.7 47.567 1402.58 42.238L1400.96 41.0617ZM1394.76 60.4176C1394.76 66.4443 1396.2 71.6838 1399.11 76.0905L1400.78 74.9876C1398.12 70.9577 1396.76 66.1162 1396.76 60.4176H1394.76ZM1399.12 76.1068C1402.06 80.3697 1405.81 83.9306 1410.35 86.7882L1411.42 85.0953C1407.1 82.3762 1403.55 79.002 1400.77 74.9713L1399.12 76.1068ZM1410.36 86.7944C1414.85 89.5455 1419.56 91.8265 1424.48 93.6367L1425.17 91.7596C1420.37 89.995 1415.79 87.7717 1411.41 85.0892L1410.36 86.7944ZM1424.5 93.6411C1429.38 95.3642 1433.87 96.767 1437.98 97.8478L1438.49 95.9136C1434.44 94.8494 1430 93.4639 1425.16 91.7552L1424.5 93.6411ZM1437.97 97.8463L1460.28 103.852L1460.8 101.921L1438.49 95.9151L1437.97 97.8463ZM1460.29 103.854C1465.97 105.344 1472.29 107.406 1479.28 110.042L1479.98 108.171C1472.95 105.516 1466.55 103.431 1460.79 101.919L1460.29 103.854ZM1479.28 110.043C1486.27 112.657 1492.95 116.226 1499.32 120.753L1500.48 119.123C1493.98 114.499 1487.14 110.847 1479.98 108.17L1479.28 110.043ZM1499.33 120.76C1505.71 125.18 1510.98 130.863 1515.13 137.824L1516.84 136.8C1512.56 129.604 1507.1 123.705 1500.47 119.116L1499.33 120.76ZM1515.13 137.824C1519.23 144.713 1521.31 153.212 1521.31 163.372H1523.31C1523.31 152.941 1521.18 144.067 1516.84 136.8L1515.13 137.824ZM1521.31 163.372C1521.31 175.055 1518.25 185.589 1512.14 195.001L1513.82 196.09C1520.15 186.341 1523.31 175.426 1523.31 163.372H1521.31ZM1512.14 195.005C1506.11 204.406 1497.25 211.905 1485.53 217.486L1486.39 219.291C1498.4 213.576 1507.56 205.846 1513.82 196.086L1512.14 195.005ZM1485.53 217.487C1473.9 223.054 1459.72 225.861 1442.95 225.861V227.861C1459.93 227.861 1474.42 225.019 1486.39 219.29L1485.53 217.487ZM1442.95 225.861C1427.33 225.861 1413.85 223.339 1402.5 218.331L1401.69 220.161C1413.35 225.306 1427.12 227.861 1442.95 227.861V225.861ZM1402.5 218.332C1391.2 213.319 1382.34 206.346 1375.88 197.425L1374.26 198.599C1380.95 207.838 1390.11 215.021 1401.69 220.16L1402.5 218.332ZM1375.88 197.43C1369.49 188.511 1365.86 178.146 1365.02 166.304L1363.02 166.446C1363.89 178.627 1367.63 189.353 1374.25 198.595L1375.88 197.43ZM1364.02 167.375H1391.47V165.375H1364.02V167.375ZM1390.48 166.461C1391.21 174.938 1394.07 182.015 1399.09 187.633L1400.59 186.299C1395.89 181.049 1393.17 174.399 1392.47 166.289L1390.48 166.461ZM1399.1 187.643C1404.16 193.136 1410.52 197.226 1418.17 199.92L1418.83 198.034C1411.47 195.438 1405.39 191.52 1400.58 186.289L1399.1 187.643ZM1418.18 199.924C1425.87 202.536 1434.13 203.838 1442.95 203.838V201.838C1434.33 201.838 1426.29 200.566 1418.82 198.03L1418.18 199.924ZM1442.95 203.838C1453.21 203.838 1462.46 202.176 1470.68 198.831L1469.92 196.979C1461.98 200.211 1453 201.838 1442.95 201.838V203.838ZM1470.68 198.828C1478.89 195.413 1485.44 190.671 1490.28 184.585L1488.71 183.341C1484.12 189.123 1477.86 193.676 1469.92 196.982L1470.68 198.828ZM1490.28 184.581C1495.15 178.39 1497.57 171.163 1497.57 162.943H1495.57C1495.57 170.738 1493.28 177.525 1488.71 183.345L1490.28 184.581ZM1497.57 162.943C1497.57 155.455 1495.48 149.268 1491.21 144.476L1489.71 145.806C1493.6 150.165 1495.57 155.847 1495.57 162.943H1497.57ZM1491.21 144.476C1487.02 139.773 1481.53 135.976 1474.77 133.069L1473.98 134.906C1480.52 137.718 1485.75 141.357 1489.71 145.806L1491.21 144.476ZM1474.77 133.069C1468.08 130.189 1460.85 127.672 1453.09 125.517L1452.55 127.444C1460.23 129.578 1467.38 132.066 1473.98 134.906L1474.77 133.069ZM1453.09 125.519L1426.07 117.797L1425.52 119.72L1452.54 127.442L1453.09 125.519ZM1426.07 117.797C1409.01 112.894 1395.58 105.913 1385.72 96.8934L1384.37 98.3694C1394.52 107.653 1408.25 114.757 1425.52 119.72L1426.07 117.797ZM1385.72 96.8934C1375.93 87.9498 1371.03 76.2521 1371.03 61.7045H1369.03C1369.03 76.7564 1374.13 89.01 1384.37 98.3694L1385.72 96.8934ZM1371.03 61.7045C1371.03 49.599 1374.29 39.0846 1380.81 30.119L1379.19 28.9435C1372.41 38.2809 1369.03 49.2154 1369.03 61.7045H1371.03ZM1380.81 30.1202C1387.42 21.0495 1396.28 14.0057 1407.44 8.99452L1406.62 7.17024C1395.17 12.3115 1386.02 19.5669 1379.19 28.9423L1380.81 30.1202ZM1407.44 8.99333C1418.66 3.91112 1431.21 1.36079 1445.1 1.36079V-0.639213C1430.96 -0.639213 1418.13 1.95818 1406.61 7.17143L1407.44 8.99333ZM1445.1 1.36079C1459.13 1.36079 1471.57 3.87688 1482.43 8.88326L1483.27 7.067C1472.1 1.92092 1459.37 -0.639213 1445.1 -0.639213V1.36079ZM1482.43 8.8855C1493.31 13.828 1501.89 20.5897 1508.21 29.1597L1509.82 27.9724C1503.27 19.0973 1494.41 12.1317 1483.26 7.06477L1482.43 8.8855ZM1508.21 29.1639C1514.59 37.7193 1517.96 47.4233 1518.31 58.305L1520.31 58.2405C1519.95 46.9583 1516.45 36.8579 1509.82 27.9681L1508.21 29.1639ZM1519.31 57.2727H1493.57V59.2727H1519.31V57.2727Z" fill="#2FD38E" mask="url(#path-1-outside-1_95_16076)"/>
</svg>
