<svg width="1027" height="227" viewBox="0 0 1027 227" fill="none" xmlns="http://www.w3.org/2000/svg">
<mask id="path-1-outside-1_95_16077" maskUnits="userSpaceOnUse" x="-1" y="-1" width="1029" height="229" fill="black">
<rect fill="white" x="-1" y="-1" width="1029" height="229"/>
<path d="M28.6051 223H0.721591L81.3693 3.36363H108.824L189.472 223H161.588L95.9545 38.1108H94.2386L28.6051 223ZM38.9006 137.205H151.293V160.798H38.9006V137.205ZM223.683 223V3.36363H300.469C315.77 3.36363 328.389 6.00899 338.327 11.2997C348.265 16.5189 355.665 23.5613 360.526 32.4268C365.388 41.2209 367.819 50.9801 367.819 61.7045C367.819 71.142 366.139 78.9351 362.778 85.0838C359.49 91.2325 355.128 96.0942 349.695 99.669C344.332 103.244 338.505 105.889 332.214 107.605V109.75C338.934 110.179 345.691 112.538 352.483 116.828C359.275 121.118 364.959 127.267 369.535 135.274C374.111 143.282 376.398 153.077 376.398 164.659C376.398 175.67 373.896 185.572 368.891 194.366C363.887 203.16 355.986 210.131 345.19 215.278C334.394 220.426 320.345 223 303.043 223H223.683ZM250.279 199.406H303.043C320.417 199.406 332.75 196.046 340.043 189.325C347.407 182.533 351.089 174.311 351.089 164.659C351.089 157.223 349.194 150.36 345.405 144.068C341.616 137.705 336.218 132.629 329.211 128.839C322.204 124.979 313.911 123.048 304.33 123.048H250.279V199.406ZM250.279 99.8835H299.612C307.619 99.8835 314.84 98.3106 321.275 95.1648C327.781 92.0189 332.929 87.5862 336.718 81.8665C340.579 76.1468 342.509 69.4261 342.509 61.7045C342.509 52.0526 339.149 43.8662 332.428 37.1456C325.708 30.3535 315.055 26.9574 300.469 26.9574H250.279V99.8835ZM605.419 113.182C605.419 136.347 601.236 156.366 592.871 173.239C584.506 190.112 573.031 203.124 558.446 212.276C543.86 221.427 527.202 226.003 508.47 226.003C489.738 226.003 473.079 221.427 458.494 212.276C443.909 203.124 432.434 190.112 424.069 173.239C415.703 156.366 411.521 136.347 411.521 113.182C411.521 90.017 415.703 69.9981 424.069 53.125C432.434 36.2519 443.909 23.2396 458.494 14.0881C473.079 4.93655 489.738 0.360787 508.47 0.360787C527.202 0.360787 543.86 4.93655 558.446 14.0881C573.031 23.2396 584.506 36.2519 592.871 53.125C601.236 69.9981 605.419 90.017 605.419 113.182ZM579.68 113.182C579.68 94.1638 576.498 78.1129 570.135 65.0291C563.844 51.9453 555.3 42.0431 544.504 35.3224C533.779 28.6018 521.768 25.2415 508.47 25.2415C495.172 25.2415 483.124 28.6018 472.328 35.3224C461.604 42.0431 453.06 51.9453 446.697 65.0291C440.405 78.1129 437.26 94.1638 437.26 113.182C437.26 132.2 440.405 148.251 446.697 161.335C453.06 174.418 461.604 184.321 472.328 191.041C483.124 197.762 495.172 201.122 508.47 201.122C521.768 201.122 533.779 197.762 544.504 191.041C555.3 184.321 563.844 174.418 570.135 161.335C576.498 148.251 579.68 132.2 579.68 113.182ZM794.276 3.36363H820.873V148.787C820.873 163.801 817.333 177.207 810.255 189.004C803.249 200.729 793.346 209.988 780.549 216.78C767.751 223.5 752.737 226.861 735.506 226.861C718.275 226.861 703.261 223.5 690.463 216.78C677.666 209.988 667.728 200.729 660.65 189.004C653.643 177.207 650.14 163.801 650.14 148.787V3.36363H676.736V146.642C676.736 157.366 679.096 166.911 683.814 175.276C688.533 183.57 695.254 190.112 703.976 194.902C712.77 199.621 723.28 201.98 735.506 201.98C747.732 201.98 758.242 199.621 767.036 194.902C775.83 190.112 782.551 183.57 787.198 175.276C791.917 166.911 794.276 157.366 794.276 146.642V3.36363ZM861.974 26.9574V3.36363H1026.7V26.9574H957.636V223H931.039V26.9574H861.974Z"/>
</mask>
<path d="M28.6051 223V224H29.3113L29.5475 223.335L28.6051 223ZM0.721591 223L-0.217127 222.655L-0.710879 224H0.721591V223ZM81.3693 3.36363V2.36363H80.6712L80.4306 3.01894L81.3693 3.36363ZM108.824 3.36363L109.763 3.01894L109.522 2.36363H108.824V3.36363ZM189.472 223V224H190.904L190.41 222.655L189.472 223ZM161.588 223L160.646 223.335L160.882 224H161.588V223ZM95.9545 38.1108L96.8969 37.7763L96.6607 37.1108H95.9545V38.1108ZM94.2386 38.1108V37.1108H93.5325L93.2963 37.7763L94.2386 38.1108ZM38.9006 137.205V136.205H37.9006V137.205H38.9006ZM151.293 137.205H152.293V136.205H151.293V137.205ZM151.293 160.798V161.798H152.293V160.798H151.293ZM38.9006 160.798H37.9006V161.798H38.9006V160.798ZM28.6051 222H0.721591V224H28.6051V222ZM1.66031 223.345L82.308 3.70832L80.4306 3.01894L-0.217127 222.655L1.66031 223.345ZM81.3693 4.36363H108.824V2.36363H81.3693V4.36363ZM107.885 3.70832L188.533 223.345L190.41 222.655L109.763 3.01894L107.885 3.70832ZM189.472 222H161.588V224H189.472V222ZM162.53 222.665L96.8969 37.7763L95.0122 38.4453L160.646 223.335L162.53 222.665ZM95.9545 37.1108H94.2386V39.1108H95.9545V37.1108ZM93.2963 37.7763L27.6627 222.665L29.5475 223.335L95.181 38.4453L93.2963 37.7763ZM38.9006 138.205H151.293V136.205H38.9006V138.205ZM150.293 137.205V160.798H152.293V137.205H150.293ZM151.293 159.798H38.9006V161.798H151.293V159.798ZM39.9006 160.798V137.205H37.9006V160.798H39.9006ZM223.683 223H222.683V224H223.683V223ZM223.683 3.36363V2.36363H222.683V3.36363H223.683ZM338.327 11.2997L337.857 12.1824L337.862 12.1851L338.327 11.2997ZM360.526 32.4268L359.649 32.9077L359.651 32.9107L360.526 32.4268ZM362.778 85.0838L361.901 84.6042L361.897 84.6121L362.778 85.0838ZM349.695 99.669L349.145 98.8336L349.14 98.837L349.695 99.669ZM332.214 107.605L331.951 106.64L331.214 106.841V107.605H332.214ZM332.214 109.75H331.214V110.688L332.15 110.748L332.214 109.75ZM352.483 116.828L351.949 117.674L351.949 117.674L352.483 116.828ZM368.891 194.366L369.76 194.86L369.76 194.86L368.891 194.366ZM345.19 215.278L344.76 214.376L344.76 214.376L345.19 215.278ZM250.279 199.406H249.279V200.406H250.279V199.406ZM340.043 189.325L340.72 190.061L340.721 190.06L340.043 189.325ZM345.405 144.068L344.546 144.58L344.548 144.584L345.405 144.068ZM329.211 128.839L328.728 129.715L328.735 129.719L329.211 128.839ZM250.279 123.048V122.048H249.279V123.048H250.279ZM250.279 99.8835H249.279V100.884H250.279V99.8835ZM321.275 95.1648L320.84 94.2645L320.836 94.2664L321.275 95.1648ZM336.718 81.8665L335.889 81.307L335.884 81.3142L336.718 81.8665ZM332.428 37.1456L331.717 37.849L331.721 37.8527L332.428 37.1456ZM250.279 26.9574V25.9574H249.279V26.9574H250.279ZM224.683 223V3.36363H222.683V223H224.683ZM223.683 4.36363H300.469V2.36363H223.683V4.36363ZM300.469 4.36363C315.662 4.36363 328.106 6.99136 337.857 12.1824L338.797 10.417C328.671 5.02662 315.877 2.36363 300.469 2.36363V4.36363ZM337.862 12.1851C347.646 17.3233 354.893 24.2332 359.649 32.9077L361.403 31.946C356.437 22.8894 348.884 15.7146 338.792 10.4144L337.862 12.1851ZM359.651 32.9107C364.425 41.5466 366.819 51.1376 366.819 61.7045H368.819C368.819 50.8226 366.351 40.8951 361.401 31.943L359.651 32.9107ZM366.819 61.7045C366.819 71.0302 365.158 78.6448 361.901 84.6042L363.656 85.5634C367.12 79.2254 368.819 71.2539 368.819 61.7045H366.819ZM361.897 84.6121C358.681 90.6247 354.429 95.357 349.145 98.8336L350.244 100.504C355.827 96.8314 360.299 91.8403 363.66 85.5555L361.897 84.6121ZM349.14 98.837C343.868 102.351 338.14 104.952 331.951 106.64L332.477 108.57C338.871 106.826 344.797 104.136 350.249 100.501L349.14 98.837ZM331.214 107.605V109.75H333.214V107.605H331.214ZM332.15 110.748C338.674 111.164 345.271 113.456 351.949 117.674L353.017 115.983C346.111 111.621 339.195 109.194 332.277 108.752L332.15 110.748ZM351.949 117.674C358.584 121.864 364.16 127.884 368.667 135.77L370.403 134.778C365.758 126.65 359.967 120.372 353.017 115.983L351.949 117.674ZM368.667 135.77C373.137 143.593 375.398 153.207 375.398 164.659H377.398C377.398 152.947 375.085 142.971 370.403 134.778L368.667 135.77ZM375.398 164.659C375.398 175.512 372.934 185.241 368.022 193.871L369.76 194.86C374.858 185.903 377.398 175.827 377.398 164.659H375.398ZM368.022 193.871C363.136 202.457 355.406 209.3 344.76 214.376L345.621 216.181C356.567 210.962 364.637 203.863 369.76 194.86L368.022 193.871ZM344.76 214.376C334.145 219.437 320.258 222 303.043 222V224C320.433 224 334.644 221.415 345.621 216.181L344.76 214.376ZM303.043 222H223.683V224H303.043V222ZM250.279 200.406H303.043V198.406H250.279V200.406ZM303.043 200.406C320.495 200.406 333.147 197.04 340.72 190.061L339.365 188.59C332.353 195.052 320.338 198.406 303.043 198.406V200.406ZM340.721 190.06C348.281 183.087 352.089 174.602 352.089 164.659H350.089C350.089 174.02 346.532 181.979 339.365 188.59L340.721 190.06ZM352.089 164.659C352.089 157.044 350.146 150.002 346.261 143.552L344.548 144.584C348.242 150.718 350.089 157.403 350.089 164.659H352.089ZM346.264 143.557C342.375 137.027 336.84 131.828 329.687 127.96L328.735 129.719C335.596 133.429 340.856 138.383 344.546 144.58L346.264 143.557ZM329.694 127.964C322.512 124.007 314.046 122.048 304.33 122.048V124.048C313.775 124.048 321.896 125.951 328.728 129.715L329.694 127.964ZM304.33 122.048H250.279V124.048H304.33V122.048ZM249.279 123.048V199.406H251.279V123.048H249.279ZM250.279 100.884H299.612V98.8835H250.279V100.884ZM299.612 100.884C307.753 100.884 315.127 99.2834 321.714 96.0632L320.836 94.2664C314.553 97.3378 307.485 98.8835 299.612 98.8835V100.884ZM321.71 96.0651C328.369 92.8454 333.658 88.2962 337.552 82.4188L335.884 81.3142C332.2 86.8761 327.193 91.1925 320.84 94.2645L321.71 96.0651ZM337.547 82.4259C341.532 76.5217 343.509 69.6009 343.509 61.7045H341.509C341.509 69.2514 339.625 75.7718 335.889 81.307L337.547 82.4259ZM343.509 61.7045C343.509 51.792 340.047 43.3499 333.135 36.4385L331.721 37.8527C338.251 44.3826 341.509 52.3131 341.509 61.7045H343.509ZM333.139 36.4422C326.152 29.3805 315.184 25.9574 300.469 25.9574V27.9574C314.926 27.9574 325.264 31.3264 331.717 37.849L333.139 36.4422ZM300.469 25.9574H250.279V27.9574H300.469V25.9574ZM249.279 26.9574V99.8835H251.279V26.9574H249.279ZM592.871 173.239L591.975 172.794L591.975 172.794L592.871 173.239ZM558.446 212.276L558.977 213.123L558.977 213.123L558.446 212.276ZM458.494 212.276L457.962 213.123L457.962 213.123L458.494 212.276ZM424.069 173.239L424.964 172.794L424.964 172.794L424.069 173.239ZM424.069 53.125L423.173 52.6808L424.069 53.125ZM558.446 14.0881L558.977 13.241L558.977 13.241L558.446 14.0881ZM592.871 53.125L591.975 53.5692L591.975 53.5692L592.871 53.125ZM570.135 65.0291L569.234 65.4625L569.236 65.4665L570.135 65.0291ZM544.504 35.3224L543.973 36.1698L543.975 36.1714L544.504 35.3224ZM472.328 35.3224L471.8 34.4735L471.797 34.4751L472.328 35.3224ZM446.697 65.0291L445.798 64.5918L445.796 64.5958L446.697 65.0291ZM446.697 161.335L445.796 161.768L445.798 161.772L446.697 161.335ZM472.328 191.041L471.797 191.889L471.8 191.89L472.328 191.041ZM544.504 191.041L543.975 190.192L543.973 190.194L544.504 191.041ZM570.135 161.335L569.236 160.897L569.234 160.901L570.135 161.335ZM604.419 113.182C604.419 136.227 600.258 156.088 591.975 172.794L593.767 173.683C602.214 156.644 606.419 136.466 606.419 113.182H604.419ZM591.975 172.794C583.684 189.518 572.329 202.384 557.914 211.429L558.977 213.123C573.733 203.864 585.328 190.705 593.767 173.683L591.975 172.794ZM557.914 211.429C543.502 220.471 527.031 225.003 508.47 225.003V227.003C527.373 227.003 544.219 222.383 558.977 213.123L557.914 211.429ZM508.47 225.003C489.909 225.003 473.437 220.471 459.025 211.429L457.962 213.123C472.721 222.383 489.567 227.003 508.47 227.003V225.003ZM459.025 211.429C444.611 202.384 433.256 189.518 424.964 172.794L423.173 173.683C431.612 190.705 443.206 203.864 457.962 213.123L459.025 211.429ZM424.964 172.794C416.682 156.088 412.521 136.227 412.521 113.182H410.521C410.521 136.466 414.725 156.644 423.173 173.683L424.964 172.794ZM412.521 113.182C412.521 90.1364 416.682 70.2761 424.964 53.5692L423.173 52.6808C414.725 69.7201 410.521 89.8977 410.521 113.182H412.521ZM424.964 53.5692C433.256 36.8454 444.611 23.9795 459.025 14.9351L457.962 13.241C443.206 22.4997 431.612 35.6584 423.173 52.6808L424.964 53.5692ZM459.025 14.9351C473.437 5.89228 489.909 1.36079 508.47 1.36079V-0.639213C489.567 -0.639213 472.721 3.98081 457.962 13.241L459.025 14.9351ZM508.47 1.36079C527.031 1.36079 543.502 5.89228 557.914 14.9351L558.977 13.241C544.219 3.98081 527.373 -0.639213 508.47 -0.639213V1.36079ZM557.914 14.9351C572.329 23.9795 583.684 36.8454 591.975 53.5692L593.767 52.6808C585.328 35.6584 573.733 22.4997 558.977 13.241L557.914 14.9351ZM591.975 53.5692C600.258 70.2761 604.419 90.1364 604.419 113.182H606.419C606.419 89.8977 602.214 69.7201 593.767 52.6808L591.975 53.5692ZM580.68 113.182C580.68 94.057 577.481 77.847 571.035 64.5918L569.236 65.4665C575.516 78.3788 578.68 94.2706 578.68 113.182H580.68ZM571.037 64.5958C564.675 51.3657 556.011 41.3081 545.032 34.4735L543.975 36.1714C554.588 42.7781 563.013 52.5249 569.234 65.4625L571.037 64.5958ZM545.035 34.4751C534.143 27.6495 521.946 24.2415 508.47 24.2415V26.2415C521.59 26.2415 533.416 29.5541 543.973 36.1698L545.035 34.4751ZM508.47 24.2415C494.994 24.2415 482.762 27.6495 471.8 34.4735L472.857 36.1714C483.487 29.5541 495.349 26.2415 508.47 26.2415V24.2415ZM471.797 34.4751C460.892 41.3094 452.23 51.3652 445.798 64.5918L447.596 65.4665C453.89 52.5254 462.316 42.7768 472.859 36.1698L471.797 34.4751ZM445.796 64.5958C439.422 77.8499 436.26 94.0584 436.26 113.182H438.26C438.26 94.2692 441.389 78.3759 447.598 65.4625L445.796 64.5958ZM436.26 113.182C436.26 132.305 439.422 148.514 445.796 161.768L447.598 160.901C441.389 147.988 438.26 132.094 438.26 113.182H436.26ZM445.798 161.772C452.23 174.998 460.892 185.054 471.797 191.889L472.859 190.194C462.316 183.587 453.89 173.838 447.596 160.897L445.798 161.772ZM471.8 191.89C482.762 198.714 494.994 202.122 508.47 202.122V200.122C495.349 200.122 483.487 196.81 472.857 190.192L471.8 191.89ZM508.47 202.122C521.946 202.122 534.143 198.714 545.035 191.889L543.973 190.194C533.416 196.81 521.59 200.122 508.47 200.122V202.122ZM545.032 191.89C556.011 185.056 564.675 174.998 571.037 161.768L569.234 160.901C563.013 173.839 554.588 183.586 543.975 190.192L545.032 191.89ZM571.035 161.772C577.481 148.517 580.68 132.307 580.68 113.182H578.68C578.68 132.093 575.516 147.985 569.236 160.897L571.035 161.772ZM794.276 3.36363V2.36363H793.276V3.36363H794.276ZM820.873 3.36363H821.873V2.36363H820.873V3.36363ZM810.255 189.004L809.398 188.489L809.397 188.491L810.255 189.004ZM780.549 216.78L781.014 217.665L781.017 217.663L780.549 216.78ZM690.463 216.78L689.995 217.663L689.998 217.665L690.463 216.78ZM660.65 189.004L659.79 189.514L659.793 189.52L660.65 189.004ZM650.14 3.36363V2.36363H649.14V3.36363H650.14ZM676.736 3.36363H677.736V2.36363H676.736V3.36363ZM683.814 175.276L682.943 175.768L682.945 175.771L683.814 175.276ZM703.976 194.902L703.495 195.779L703.503 195.783L703.976 194.902ZM767.036 194.902L767.509 195.783L767.514 195.78L767.036 194.902ZM787.198 175.276L786.327 174.785L786.325 174.787L787.198 175.276ZM794.276 4.36363H820.873V2.36363H794.276V4.36363ZM819.873 3.36363V148.787H821.873V3.36363H819.873ZM819.873 148.787C819.873 163.637 816.374 176.862 809.398 188.489L811.113 189.518C818.293 177.552 821.873 163.965 821.873 148.787H819.873ZM809.397 188.491C802.49 200.05 792.727 209.185 780.08 215.897L781.017 217.663C793.966 210.791 804.008 201.408 811.114 189.517L809.397 188.491ZM780.084 215.894C767.454 222.527 752.606 225.861 735.506 225.861V227.861C752.868 227.861 768.047 224.474 781.014 217.665L780.084 215.894ZM735.506 225.861C718.406 225.861 703.558 222.527 690.928 215.894L689.998 217.665C702.965 224.474 718.144 227.861 735.506 227.861V225.861ZM690.932 215.897C678.285 209.184 668.485 200.048 661.506 188.487L659.793 189.52C666.971 201.41 677.047 210.791 689.995 217.663L690.932 215.897ZM661.509 188.493C654.603 176.865 651.14 163.639 651.14 148.787H649.14C649.14 163.963 652.683 177.548 659.79 189.514L661.509 188.493ZM651.14 148.787V3.36363H649.14V148.787H651.14ZM650.14 4.36363H676.736V2.36363H650.14V4.36363ZM675.736 3.36363V146.642H677.736V3.36363H675.736ZM675.736 146.642C675.736 157.518 678.13 167.236 682.943 175.768L684.685 174.785C680.061 166.587 677.736 157.215 677.736 146.642H675.736ZM682.945 175.771C687.759 184.232 694.617 190.903 703.495 195.779L704.458 194.025C695.89 189.32 689.307 182.907 684.683 174.782L682.945 175.771ZM703.503 195.783C712.472 200.596 723.152 202.98 735.506 202.98V200.98C723.408 200.98 713.068 198.646 704.449 194.021L703.503 195.783ZM735.506 202.98C747.86 202.98 758.54 200.596 767.509 195.783L766.563 194.021C757.944 198.646 747.604 200.98 735.506 200.98V202.98ZM767.514 195.78C776.464 190.905 783.326 184.232 788.07 175.765L786.325 174.787C781.775 182.908 775.195 189.319 766.558 194.024L767.514 195.78ZM788.069 175.768C792.882 167.236 795.276 157.518 795.276 146.642H793.276C793.276 157.215 790.951 166.587 786.327 174.785L788.069 175.768ZM795.276 146.642V3.36363H793.276V146.642H795.276ZM861.974 26.9574H860.974V27.9574H861.974V26.9574ZM861.974 3.36363V2.36363H860.974V3.36363H861.974ZM1026.7 3.36363H1027.7V2.36363H1026.7V3.36363ZM1026.7 26.9574V27.9574H1027.7V26.9574H1026.7ZM957.636 26.9574V25.9574H956.636V26.9574H957.636ZM957.636 223V224H958.636V223H957.636ZM931.039 223H930.039V224H931.039V223ZM931.039 26.9574H932.039V25.9574H931.039V26.9574ZM862.974 26.9574V3.36363H860.974V26.9574H862.974ZM861.974 4.36363H1026.7V2.36363H861.974V4.36363ZM1025.7 3.36363V26.9574H1027.7V3.36363H1025.7ZM1026.7 25.9574H957.636V27.9574H1026.7V25.9574ZM956.636 26.9574V223H958.636V26.9574H956.636ZM957.636 222H931.039V224H957.636V222ZM932.039 223V26.9574H930.039V223H932.039ZM931.039 25.9574H861.974V27.9574H931.039V25.9574Z" fill="#2FD38E" mask="url(#path-1-outside-1_95_16077)"/>
</svg>
