<svg width="58" height="423" viewBox="0 0 58 423" fill="none" xmlns="http://www.w3.org/2000/svg">
<path fill-rule="evenodd" clip-rule="evenodd" d="M57.7902 3.00494L57.7902 25.8907C57.7902 27.55 56.481 28.8951 54.866 28.8951C54.3733 28.8951 53.8885 28.7671 53.4568 28.5232L33.2069 17.0802C31.7918 16.2805 31.2756 14.4537 32.0539 12.9998C32.3212 12.5006 32.721 12.0898 33.2069 11.8152L53.4568 0.372448C54.8719 -0.427181 56.6499 0.1032 57.4282 1.55709C57.6657 2.00066 57.7902 2.4987 57.7902 3.00494Z" fill="#2FD38E"/>
<path fill-rule="evenodd" clip-rule="evenodd" d="M4.33339 30.6651L24.5832 42.1079C25.9983 42.9075 26.5145 44.7343 25.7363 46.1882C25.469 46.6874 25.0691 47.0983 24.5833 47.3728L4.33341 58.8158C2.91834 59.6155 1.14027 59.0851 0.361972 57.6312C0.124511 57.1876 -1.15382e-06 56.6896 -1.13169e-06 56.1833L-1.31326e-07 33.2976C-5.87965e-08 31.6383 1.3092 30.2932 2.92418 30.2932C3.41691 30.2932 3.90165 30.4211 4.33339 30.6651Z" fill="#2FD38E"/>
<path fill-rule="evenodd" clip-rule="evenodd" d="M57.7902 63.5914L57.7902 86.4771C57.7902 88.1364 56.481 89.4815 54.866 89.4815C54.3733 89.4815 53.8885 89.3536 53.4568 89.1096L33.2069 77.6666C31.7918 76.867 31.2756 75.0401 32.0539 73.5862C32.3212 73.087 32.721 72.6762 33.2069 72.4016L53.4568 60.9589C54.8719 60.1592 56.6499 60.6896 57.4282 62.1435C57.6657 62.5871 57.7902 63.0851 57.7902 63.5914Z" fill="#2FD38E"/>
<path fill-rule="evenodd" clip-rule="evenodd" d="M4.33339 91.2515L24.5832 102.694C25.9983 103.494 26.5145 105.321 25.7363 106.775C25.469 107.274 25.0691 107.685 24.5833 107.959L4.33341 119.402C2.91834 120.202 1.14027 119.672 0.361972 118.218C0.124511 117.774 -1.15382e-06 117.276 -1.13169e-06 116.77L-1.31326e-07 93.884C-5.87965e-08 92.2247 1.3092 90.8796 2.92418 90.8796C3.41691 90.8796 3.90165 91.0076 4.33339 91.2515Z" fill="#2FD38E"/>
<path fill-rule="evenodd" clip-rule="evenodd" d="M57.7902 124.178L57.7902 147.064C57.7902 148.723 56.481 150.068 54.866 150.068C54.3733 150.068 53.8885 149.94 53.4568 149.696L33.2069 138.253C31.7918 137.453 31.2756 135.627 32.0539 134.173C32.3212 133.673 32.721 133.263 33.2069 132.988L53.4568 121.545C54.8719 120.746 56.6499 121.276 57.4282 122.73C57.6657 123.174 57.7902 123.672 57.7902 124.178Z" fill="#2FD38E"/>
<path fill-rule="evenodd" clip-rule="evenodd" d="M4.33339 151.838L24.5832 163.281C25.9983 164.08 26.5145 165.907 25.7363 167.361C25.469 167.86 25.0691 168.271 24.5833 168.546L4.33341 179.989C2.91834 180.788 1.14027 180.258 0.361972 178.804C0.124511 178.36 -1.15382e-06 177.862 -1.13169e-06 177.356L-1.31326e-07 154.47C-5.87965e-08 152.811 1.3092 151.466 2.92418 151.466C3.41691 151.466 3.90165 151.594 4.33339 151.838Z" fill="#2FD38E"/>
<path fill-rule="evenodd" clip-rule="evenodd" d="M57.7902 184.764L57.7902 207.65C57.7902 209.309 56.481 210.654 54.866 210.654C54.3733 210.654 53.8885 210.526 53.4568 210.282L33.2069 198.839C31.7918 198.04 31.2756 196.213 32.0539 194.759C32.3212 194.26 32.721 193.849 33.2069 193.574L53.4568 182.132C54.8719 181.332 56.6499 181.862 57.4282 183.316C57.6657 183.76 57.7902 184.258 57.7902 184.764Z" fill="#2FD38E"/>
<path fill-rule="evenodd" clip-rule="evenodd" d="M4.33339 212.424L24.5832 223.867C25.9983 224.667 26.5145 226.494 25.7363 227.947C25.469 228.447 25.0691 228.858 24.5833 229.132L4.33341 240.575C2.91834 241.375 1.14027 240.844 0.361972 239.39C0.124511 238.947 -1.15382e-06 238.449 -1.13169e-06 237.943L-1.31326e-07 215.057C-5.87965e-08 213.398 1.3092 212.052 2.92418 212.052C3.41691 212.052 3.90165 212.18 4.33339 212.424Z" fill="#2FD38E"/>
<path fill-rule="evenodd" clip-rule="evenodd" d="M57.7902 245.351L57.7902 268.236C57.7902 269.896 56.481 271.241 54.866 271.241C54.3733 271.241 53.8885 271.113 53.4568 270.869L33.2069 259.426C31.7918 258.626 31.2756 256.799 32.0539 255.346C32.3212 254.846 32.721 254.435 33.2069 254.161L53.4568 242.718C54.8719 241.919 56.6499 242.449 57.4282 243.903C57.6657 244.346 57.7902 244.844 57.7902 245.351Z" fill="#2FD38E"/>
<path fill-rule="evenodd" clip-rule="evenodd" d="M4.33339 273.011L24.5832 284.454C25.9983 285.253 26.5145 287.08 25.7363 288.534C25.469 289.033 25.0691 289.444 24.5833 289.719L4.33341 301.162C2.91834 301.961 1.14027 301.431 0.361972 299.977C0.124511 299.533 -1.15382e-06 299.035 -1.13169e-06 298.529L-1.31326e-07 275.643C-5.87965e-08 273.984 1.3092 272.639 2.92418 272.639C3.41691 272.639 3.90165 272.767 4.33339 273.011Z" fill="#2FD38E"/>
<path fill-rule="evenodd" clip-rule="evenodd" d="M57.7902 305.937L57.7902 328.823C57.7902 330.482 56.481 331.827 54.866 331.827C54.3733 331.827 53.8885 331.699 53.4568 331.455L33.2069 320.012C31.7918 319.213 31.2756 317.386 32.0539 315.932C32.3212 315.433 32.721 315.022 33.2069 314.747L53.4568 303.305C54.8719 302.505 56.6499 303.035 57.4282 304.489C57.6657 304.933 57.7902 305.431 57.7902 305.937Z" fill="#2FD38E"/>
<path fill-rule="evenodd" clip-rule="evenodd" d="M4.33339 333.597L24.5832 345.04C25.9983 345.84 26.5145 347.666 25.7363 349.12C25.469 349.62 25.0691 350.03 24.5833 350.305L4.33341 361.748C2.91834 362.548 1.14027 362.017 0.361972 360.563C0.124511 360.12 -1.15382e-06 359.622 -1.13169e-06 359.115L-1.31326e-07 336.23C-5.87965e-08 334.57 1.3092 333.225 2.92418 333.225C3.41691 333.225 3.90165 333.353 4.33339 333.597Z" fill="#2FD38E"/>
<path fill-rule="evenodd" clip-rule="evenodd" d="M57.7902 366.523L57.7902 389.409C57.7902 391.069 56.481 392.414 54.866 392.414C54.3733 392.414 53.8885 392.286 53.4568 392.042L33.2069 380.599C31.7918 379.799 31.2756 377.972 32.0539 376.518C32.3212 376.019 32.721 375.608 33.2069 375.334L53.4568 363.891C54.8719 363.091 56.6499 363.622 57.4282 365.076C57.6657 365.519 57.7902 366.017 57.7902 366.523Z" fill="#2FD38E"/>
<path fill-rule="evenodd" clip-rule="evenodd" d="M4.33339 394.184L24.5832 405.626C25.9983 406.426 26.5145 408.253 25.7363 409.707C25.469 410.206 25.0691 410.617 24.5833 410.891L4.33341 422.334C2.91834 423.134 1.14027 422.604 0.361972 421.15C0.124511 420.706 -1.15382e-06 420.208 -1.13169e-06 419.702L-1.31326e-07 396.816C-5.87965e-08 395.157 1.3092 393.812 2.92418 393.812C3.41691 393.812 3.90165 393.94 4.33339 394.184Z" fill="#2FD38E"/>
</svg>
