<svg width="58" height="423" viewBox="0 0 58 423" fill="none" xmlns="http://www.w3.org/2000/svg">
<path fill-rule="evenodd" clip-rule="evenodd" d="M57.7902 419.702L57.7902 396.816C57.7902 395.157 56.481 393.812 54.866 393.812C54.3733 393.812 53.8885 393.94 53.4568 394.184L33.2069 405.627C31.7918 406.426 31.2756 408.253 32.0539 409.707C32.3212 410.206 32.721 410.617 33.2069 410.892L53.4568 422.334C54.8719 423.134 56.6499 422.604 57.4282 421.15C57.6657 420.706 57.7902 420.208 57.7902 419.702Z" fill="#2FD38E"/>
<path fill-rule="evenodd" clip-rule="evenodd" d="M4.33339 392.042L24.5832 380.599C25.9983 379.799 26.5145 377.972 25.7363 376.519C25.469 376.019 25.0691 375.609 24.5833 375.334L4.33341 363.891C2.91834 363.091 1.14027 363.622 0.361972 365.076C0.124511 365.519 -1.15382e-06 366.017 -1.13169e-06 366.523L-1.31326e-07 389.409C-5.87965e-08 391.068 1.3092 392.414 2.92418 392.414C3.41691 392.414 3.90165 392.286 4.33339 392.042Z" fill="#2FD38E"/>
<path fill-rule="evenodd" clip-rule="evenodd" d="M57.7902 359.115L57.7902 336.23C57.7902 334.57 56.481 333.225 54.866 333.225C54.3733 333.225 53.8885 333.353 53.4568 333.597L33.2069 345.04C31.7918 345.84 31.2756 347.667 32.0539 349.121C32.3212 349.62 32.721 350.031 33.2069 350.305L53.4568 361.748C54.8719 362.548 56.6499 362.017 57.4282 360.563C57.6657 360.12 57.7902 359.622 57.7902 359.115Z" fill="#2FD38E"/>
<path fill-rule="evenodd" clip-rule="evenodd" d="M4.33339 331.455L24.5832 320.013C25.9983 319.213 26.5145 317.386 25.7363 315.932C25.469 315.433 25.0691 315.022 24.5833 314.748L4.33341 303.305C2.91834 302.505 1.14027 303.035 0.361972 304.489C0.124511 304.933 -1.15382e-06 305.431 -1.13169e-06 305.937L-1.31326e-07 328.823C-5.87965e-08 330.482 1.3092 331.827 2.92418 331.827C3.41691 331.827 3.90165 331.699 4.33339 331.455Z" fill="#2FD38E"/>
<path fill-rule="evenodd" clip-rule="evenodd" d="M57.7902 298.529L57.7902 275.643C57.7902 273.984 56.481 272.639 54.866 272.639C54.3733 272.639 53.8885 272.767 53.4568 273.011L33.2069 284.454C31.7918 285.253 31.2756 287.08 32.0539 288.534C32.3212 289.033 32.721 289.444 33.2069 289.719L53.4568 301.162C54.8719 301.961 56.6499 301.431 57.4282 299.977C57.6657 299.533 57.7902 299.035 57.7902 298.529Z" fill="#2FD38E"/>
<path fill-rule="evenodd" clip-rule="evenodd" d="M4.33339 270.869L24.5832 259.426C25.9983 258.626 26.5145 256.8 25.7363 255.346C25.469 254.847 25.0691 254.436 24.5833 254.161L4.33341 242.718C2.91834 241.918 1.14027 242.449 0.361972 243.903C0.124511 244.346 -1.15382e-06 244.844 -1.13169e-06 245.351L-1.31326e-07 268.236C-5.87965e-08 269.896 1.3092 271.241 2.92418 271.241C3.41691 271.241 3.90165 271.113 4.33339 270.869Z" fill="#2FD38E"/>
<path fill-rule="evenodd" clip-rule="evenodd" d="M57.7902 237.943L57.7902 215.057C57.7902 213.398 56.481 212.052 54.866 212.052C54.3733 212.052 53.8885 212.18 53.4568 212.424L33.2069 223.867C31.7918 224.667 31.2756 226.494 32.0539 227.948C32.3212 228.447 32.721 228.858 33.2069 229.132L53.4568 240.575C54.8719 241.375 56.6499 240.844 57.4282 239.39C57.6657 238.947 57.7902 238.449 57.7902 237.943Z" fill="#2FD38E"/>
<path fill-rule="evenodd" clip-rule="evenodd" d="M4.33339 210.282L24.5832 198.84C25.9983 198.04 26.5145 196.213 25.7363 194.759C25.469 194.26 25.0691 193.849 24.5833 193.575L4.33341 182.132C2.91834 181.332 1.14027 181.862 0.361972 183.316C0.124511 183.76 -1.15382e-06 184.258 -1.13169e-06 184.764L-1.31326e-07 207.65C-5.87965e-08 209.309 1.3092 210.654 2.92418 210.654C3.41691 210.654 3.90165 210.526 4.33339 210.282Z" fill="#2FD38E"/>
<path fill-rule="evenodd" clip-rule="evenodd" d="M57.7902 177.356L57.7902 154.47C57.7902 152.811 56.481 151.466 54.866 151.466C54.3733 151.466 53.8885 151.594 53.4568 151.838L33.2069 163.281C31.7918 164.081 31.2756 165.907 32.0539 167.361C32.3212 167.86 32.721 168.271 33.2069 168.546L53.4568 179.989C54.8719 180.788 56.6499 180.258 57.4282 178.804C57.6657 178.36 57.7902 177.862 57.7902 177.356Z" fill="#2FD38E"/>
<path fill-rule="evenodd" clip-rule="evenodd" d="M4.33339 149.696L24.5832 138.253C25.9983 137.454 26.5145 135.627 25.7363 134.173C25.469 133.674 25.0691 133.263 24.5833 132.988L4.33341 121.545C2.91834 120.746 1.14027 121.276 0.361972 122.73C0.124511 123.173 -1.15382e-06 123.672 -1.13169e-06 124.178L-1.31326e-07 147.064C-5.87965e-08 148.723 1.3092 150.068 2.92418 150.068C3.41691 150.068 3.90165 149.94 4.33339 149.696Z" fill="#2FD38E"/>
<path fill-rule="evenodd" clip-rule="evenodd" d="M57.7902 116.77L57.7902 93.884C57.7902 92.2247 56.481 90.8796 54.866 90.8796C54.3733 90.8796 53.8885 91.0076 53.4568 91.2515L33.2069 102.695C31.7918 103.494 31.2756 105.321 32.0539 106.775C32.3212 107.274 32.721 107.685 33.2069 107.959L53.4568 119.402C54.8719 120.202 56.6499 119.671 57.4282 118.218C57.6657 117.774 57.7902 117.276 57.7902 116.77Z" fill="#2FD38E"/>
<path fill-rule="evenodd" clip-rule="evenodd" d="M4.33339 89.1096L24.5832 77.6668C25.9983 76.8672 26.5145 75.0404 25.7363 73.5865C25.469 73.0873 25.0691 72.6764 24.5833 72.4018L4.33341 60.9589C2.91834 60.1592 1.14027 60.6896 0.361972 62.1435C0.124511 62.5871 -1.15382e-06 63.0851 -1.13169e-06 63.5914L-1.31326e-07 86.4771C-5.87965e-08 88.1364 1.3092 89.4815 2.92418 89.4815C3.41691 89.4815 3.90165 89.3536 4.33339 89.1096Z" fill="#2FD38E"/>
<path fill-rule="evenodd" clip-rule="evenodd" d="M57.7902 56.1833L57.7902 33.2976C57.7902 31.6383 56.481 30.2932 54.866 30.2932C54.3733 30.2932 53.8885 30.4211 53.4568 30.6651L33.2069 42.1081C31.7918 42.9077 31.2756 44.7346 32.0539 46.1884C32.3212 46.6876 32.721 47.0985 33.2069 47.3731L53.4568 58.8158C54.8719 59.6154 56.6499 59.0851 57.4282 57.6312C57.6657 57.1876 57.7902 56.6896 57.7902 56.1833Z" fill="#2FD38E"/>
<path fill-rule="evenodd" clip-rule="evenodd" d="M4.33339 28.5232L24.5832 17.0804C25.9983 16.2808 26.5145 14.4539 25.7363 13C25.469 12.5008 25.0691 12.09 24.5833 11.8154L4.33341 0.372448C2.91834 -0.427193 1.14027 0.10317 0.361972 1.55705C0.124511 2.00063 -1.15382e-06 2.49868 -1.13169e-06 3.00493L-1.31326e-07 25.8907C-5.87965e-08 27.5499 1.3092 28.895 2.92418 28.895C3.41691 28.895 3.90165 28.7671 4.33339 28.5232Z" fill="#2FD38E"/>
</svg>
